<?xml version="1.0" encoding="utf-8"?>
<!-- Generator: Adobe Illustrator 16.0.0, SVG Export Plug-In . SVG Version: 6.00 Build 0)  -->
<!DOCTYPE svg PUBLIC "-//W3C//DTD SVG 1.1//EN" "http://www.w3.org/Graphics/SVG/1.1/DTD/svg11.dtd">
<svg version="1.1" id="Layer_1" xmlns="http://www.w3.org/2000/svg" xmlns:xlink="http://www.w3.org/1999/xlink" x="0px" y="0px"
	 width="570px" height="76px" viewBox="0 0 570 76" enable-background="new 0 0 570 76" xml:space="preserve">
<g>
	<path fill="#FFFFFF" d="M106.737,0.661h20.065v0.5h-0.992l-4.475,2.702v10.168h13.89V3.823l-4.354-2.662h-0.992v-0.5h19.822v0.5
		h-0.871l-4.434,2.702v21.638l4.232,2.622h1.113v0.5h-19.903v-0.5h0.992l4.394-2.662V14.812h-13.849v10.609l4.394,2.702h1.093v0.5
		h-20.126v-0.5h1.094l4.251-2.662V3.863l-4.475-2.702h-0.871V0.661z"/>
	<path fill="#FFFFFF" d="M171.85,0.3h0.749l16.299,25.241l3.24,2.582h0.79v0.5h-18.668v-0.5h0.952l3.077-2.662l-3.523-5.404H161.16
		l-0.506,0.861l3.037,7.206h0.952v0.5h-11.156v-0.5h0.79l5.547-7.206L171.85,0.3z M167.578,8.988l-5.973,10.328h12.735
		L167.578,8.988z"/>
	<path fill="#FFFFFF" d="M195.78,0.661h21.766c1.228,0,2.514,0.087,3.857,0.26c1.343,0.174,2.558,0.424,3.645,0.751
		c1.086,0.327,1.987,0.704,2.703,1.13c1.242,0.681,2.21,1.539,2.905,2.572c0.695,1.035,1.043,2.159,1.043,3.373
		c0,1.642-0.594,3.036-1.782,4.184c-1.188,1.148-2.93,2.015-5.224,2.602c-2.295,0.587-5.075,0.881-8.342,0.881h-5.933v8.967
		l4.434,2.742h1.074v0.5h-20.106v-0.5h0.952l4.434-2.702V3.863l-4.556-2.702h-0.871V0.661z M210.419,1.401v14.272h4.11
		c1.472,0,2.703-0.14,3.695-0.42c0.992-0.28,1.778-0.714,2.358-1.301c1.188-1.228,1.782-3.143,1.782-5.745
		c0-1.508-0.253-2.765-0.759-3.773c-0.506-1.007-1.262-1.765-2.268-2.271c-1.005-0.507-2.25-0.761-3.735-0.761H210.419z"/>
	<path fill="#FFFFFF" d="M235.463,0.661h21.766c1.228,0,2.514,0.087,3.857,0.26c1.343,0.174,2.558,0.424,3.645,0.751
		c1.086,0.327,1.987,0.704,2.703,1.13c1.242,0.681,2.209,1.539,2.905,2.572c0.695,1.035,1.042,2.159,1.042,3.373
		c0,1.642-0.594,3.036-1.782,4.184c-1.188,1.148-2.929,2.015-5.224,2.602c-2.294,0.587-5.075,0.881-8.341,0.881h-5.933v8.967
		l4.434,2.742h1.073v0.5h-20.105v-0.5h0.952l4.434-2.702V3.863l-4.555-2.702h-0.871V0.661z M250.102,1.401v14.272h4.11
		c1.472,0,2.703-0.14,3.696-0.42c0.992-0.28,1.778-0.714,2.358-1.301c1.188-1.228,1.782-3.143,1.782-5.745
		c0-1.508-0.253-2.765-0.759-3.773c-0.506-1.007-1.262-1.765-2.268-2.271c-1.006-0.507-2.251-0.761-3.735-0.761H250.102z"/>
	<path fill="#FFFFFF" d="M277.008,0.661h19.944v0.5h-0.911l-4.434,2.662v21.678l4.353,2.622h0.992v0.5h-19.903v-0.5h0.992
		l4.394-2.702V3.863L278,1.161h-0.992V0.661z"/>
	<path fill="#FFFFFF" d="M301.647,0.661h15.165l2.592,2.001l8.261,6.405l8.281,6.465l2.612,2.022V7.486l-4.536-6.345h-1.215v-0.48
		h12.108l-0.021,0.48h-1.235l-4.312,6.265v21.217h-1.013l-3.543-2.762l-11.074-8.627l-11.097-8.587l-3.543-2.742v15.533l4.535,6.705
		h1.275v0.48H302.68l0.021-0.5h1.194l4.395-6.525V5.325l-5.406-4.184h-1.235V0.661z"/>
	<path fill="#FFFFFF" d="M350.361,0.661h34.177v10.249h-0.426v-0.74l-8.665-8.768H365.08v12.311h4.556l5.446-5.584V6.525h0.486
		v14.392h-0.445v-2.182l-5.386-4.304h-4.697v13.491h10.447l9.051-9.788l0.081-0.901h0.364l-0.566,11.389h-33.935v-0.5h1.053
		l4.394-2.702V3.863l-4.535-2.702h-1.032V0.661z"/>
	<path fill="#FFFFFF" d="M405.715,18.335l-0.83-0.08c-2.241-0.241-4.06-0.497-5.457-0.771s-2.578-0.607-3.543-1.001
		c-0.965-0.393-1.806-0.857-2.521-1.391c-1.026-0.774-1.816-1.665-2.369-2.672c-0.554-1.007-0.831-2.072-0.831-3.193
		c0-1.654,0.53-3.189,1.59-4.604c1.06-1.414,2.511-2.539,4.354-3.373C397.949,0.417,399.951,0,402.11,0
		c2.943,0,5.986,0.768,9.132,2.302c1.094,0.547,1.876,0.821,2.349,0.821c0.972,0,2.523-0.834,4.656-2.502l0.709-0.521h0.485v9.047
		h-0.444c-0.892-0.934-1.638-1.674-2.238-2.222c-0.601-0.547-1.225-1.047-1.872-1.501c-1.363-0.988-2.768-1.821-4.212-2.502
		s-2.896-1.201-4.353-1.562c-1.458-0.36-2.889-0.541-4.293-0.541c-1.323,0-2.507,0.167-3.553,0.5s-1.863,0.804-2.45,1.411
		s-0.881,1.284-0.881,2.032c0,0.734,0.33,1.401,0.992,2.001c0.485,0.48,1.195,0.881,2.126,1.201
		c0.486,0.174,1.343,0.368,2.571,0.581c1.229,0.214,2.592,0.4,4.09,0.561c0.202,0.013,0.388,0.03,0.557,0.05s0.341,0.04,0.517,0.06
		c0.176,0.021,0.304,0.037,0.385,0.05l1.579,0.221c2.929,0.374,5.176,0.797,6.742,1.271c1.566,0.474,2.937,1.151,4.11,2.032
		c2.335,1.722,3.503,3.923,3.503,6.605c0,1.175-0.236,2.322-0.708,3.443c-0.474,1.121-1.129,2.095-1.965,2.922
		c-1.039,1.028-2.346,1.809-3.918,2.342c-1.573,0.533-3.371,0.8-5.396,0.8c-1.16,0-2.25-0.083-3.27-0.25
		c-1.019-0.167-2.064-0.431-3.139-0.791c-1.072-0.36-2.257-0.847-3.553-1.461c-1.444-0.654-2.437-0.981-2.976-0.981
		c-0.419,0-0.922,0.164-1.509,0.49c-0.588,0.328-1.522,0.945-2.805,1.852c-0.054,0.041-0.151,0.11-0.294,0.21
		c-0.142,0.1-0.293,0.21-0.454,0.331l-0.791,0.56h-0.586V18.615h0.627c1.701,1.869,3.246,3.303,4.637,4.304
		c1.471,1.094,3.007,2.019,4.606,2.772s3.208,1.328,4.828,1.721c1.62,0.394,3.193,0.591,4.718,0.591
		c2.119,0,3.823-0.417,5.112-1.251c1.289-0.834,1.934-1.932,1.934-3.293c0-0.987-0.357-1.821-1.072-2.502
		c-0.567-0.521-1.344-0.974-2.328-1.361c-0.581-0.2-1.529-0.407-2.846-0.621c-1.315-0.213-2.858-0.4-4.627-0.561
		C406.288,18.415,406.012,18.389,405.715,18.335z"/>
	<path fill="#FFFFFF" d="M442.786,18.335l-0.83-0.08c-2.241-0.241-4.06-0.497-5.457-0.771s-2.578-0.607-3.543-1.001
		c-0.966-0.393-1.806-0.857-2.521-1.391c-1.027-0.774-1.816-1.665-2.37-2.672c-0.553-1.007-0.83-2.072-0.83-3.193
		c0-1.654,0.53-3.189,1.59-4.604c1.06-1.414,2.511-2.539,4.353-3.373C435.021,0.417,437.021,0,439.182,0
		c2.942,0,5.986,0.768,9.132,2.302c1.094,0.547,1.876,0.821,2.349,0.821c0.972,0,2.523-0.834,4.656-2.502l0.708-0.521h0.486v9.047
		h-0.445c-0.891-0.934-1.637-1.674-2.237-2.222c-0.601-0.547-1.225-1.047-1.872-1.501c-1.363-0.988-2.768-1.821-4.212-2.502
		s-2.896-1.201-4.354-1.562c-1.457-0.36-2.888-0.541-4.292-0.541c-1.323,0-2.507,0.167-3.553,0.5
		c-1.047,0.333-1.863,0.804-2.45,1.411s-0.881,1.284-0.881,2.032c0,0.734,0.33,1.401,0.991,2.001
		c0.486,0.48,1.195,0.881,2.127,1.201c0.485,0.174,1.343,0.368,2.571,0.581c1.229,0.214,2.592,0.4,4.09,0.561
		c0.202,0.013,0.388,0.03,0.557,0.05s0.341,0.04,0.517,0.06c0.176,0.021,0.303,0.037,0.384,0.05l1.58,0.221
		c2.929,0.374,5.176,0.797,6.742,1.271c1.566,0.474,2.936,1.151,4.11,2.032c2.335,1.722,3.503,3.923,3.503,6.605
		c0,1.175-0.236,2.322-0.709,3.443c-0.473,1.121-1.128,2.095-1.964,2.922c-1.039,1.028-2.346,1.809-3.918,2.342
		c-1.573,0.533-3.371,0.8-5.396,0.8c-1.16,0-2.25-0.083-3.27-0.25c-1.019-0.167-2.065-0.431-3.139-0.791
		c-1.072-0.36-2.257-0.847-3.553-1.461c-1.444-0.654-2.437-0.981-2.977-0.981c-0.418,0-0.921,0.164-1.508,0.49
		c-0.588,0.328-1.522,0.945-2.805,1.852c-0.054,0.041-0.151,0.11-0.294,0.21c-0.142,0.1-0.293,0.21-0.455,0.331l-0.79,0.56h-0.587
		V18.615h0.628c1.701,1.869,3.245,3.303,4.636,4.304c1.472,1.094,3.008,2.019,4.607,2.772c1.599,0.754,3.208,1.328,4.828,1.721
		c1.62,0.394,3.192,0.591,4.718,0.591c2.119,0,3.823-0.417,5.112-1.251c1.289-0.834,1.934-1.932,1.934-3.293
		c0-0.987-0.357-1.821-1.072-2.502c-0.567-0.521-1.344-0.974-2.329-1.361c-0.58-0.2-1.528-0.407-2.845-0.621
		c-1.315-0.213-2.858-0.4-4.627-0.561C443.358,18.415,443.083,18.389,442.786,18.335z"/>
	<path fill="#FFFFFF" d="M12.774,49.199c0-0.704-0.356-1.307-1.068-1.307c-1.119,0-2.644,1.961-3.813,4.576
		c-0.916,2.414-2.288,6.034-3,8.246c-0.61,1.811,0.458,2.313,2.135,1.357c0.458-0.251,0.559,0.101,0.305,0.353
		c-0.61,0.604-1.881,1.056-3.254,1.056c-3.966,0-4.729-3.972-3.61-6.989c0.915-2.564,1.678-4.525,2.746-7.14
		c0.712-1.76-0.458-2.112-2.136-1.257c-0.458,0.251-0.509-0.151-0.254-0.402c0.61-0.503,2.339-1.107,3.712-1.107
		c2.848,0,4.068,1.66,3.865,3.821c1.067-1.759,2.492-3.771,5.39-3.771c3.102,0,4.017,2.414,4.017,4.073
		c0,2.363-2.339,7.341-2.898,9.302c-0.508,1.81,0.153,2.363,1.017,2.363c2.187,0,4.78-4.425,6.509-8.146
		c0.153-0.352,0.661,0,0.508,0.302c-2.593,5.329-4.932,9.051-8.796,9.051c-3.916,0-5.542-3.168-4.221-6.99
		C10.639,54.429,12.774,51.21,12.774,49.199z"/>
	<path fill="#FFFFFF" d="M32.557,46.635c6.051,0,7.882,4.827,6.712,9.303c2.593-0.604,4.475-2.263,5.847-4.224
		c0.204-0.302,0.661-0.051,0.458,0.251c-1.22,1.911-3.254,3.973-6.509,4.626c-1.22,3.67-4.526,6.99-9.204,6.99
		C18.319,63.581,20.455,46.635,32.557,46.635z M33.472,55.736c-2.339-1.559-3-4.626-2.441-6.587
		c-0.813,1.157-1.729,3.017-2.746,5.783c-1.118,3.017-2.288,7.895-0.051,7.895C29.709,62.826,31.336,61.368,33.472,55.736z
		 M33.624,55.233c1.068-2.966,1.983-7.643,0-7.894h-0.152C30.98,47.339,30.421,52.92,33.624,55.233z"/>
	<path fill="#FFFFFF" d="M54.779,55.635c0.051-0.05,0.051-0.05,0.051-0.1l0.203-0.453c0.661-1.609,1.271-3.167,1.882-4.777
		c0.712-2.011-0.61-2.715-2.289-1.76c-0.458,0.251-0.56-0.101-0.305-0.353c0.61-0.603,1.678-1.056,3.051-1.056
		c4.271,0,5.136,3.168,3.813,6.688c-0.966,2.564-2.085,4.727-2.085,6.688c0,1.458,0.916,1.911,1.729,1.911
		c3.254,0,7.424-6.185,7.424-11.062c0-1.508-0.458-2.665-1.271-3.318c0.102,0.251,0.204,0.453,0.204,0.704
		c0,0.956-0.814,1.709-1.78,1.709c-0.966,0-1.729-0.754-1.729-1.709c0-0.905,0.712-1.71,1.678-1.76h0.05h0.153
		c1.831,0.101,3.305,1.66,3.305,4.375c0,4.827-3.916,12.168-10.221,12.168c-2.949,0-4.881-1.96-4.831-4.475
		c-1.577,3.067-3.763,4.475-6.102,4.475c-3.661,0-5.187-3.067-3.813-6.436c0.966-2.414,2.034-4.525,2.848-6.788
		c0.712-2.011-0.61-2.715-2.289-1.76c-0.458,0.251-0.559-0.101-0.305-0.353c0.61-0.603,1.678-1.056,3.051-1.056
		c4.271,0,5.237,3.57,4.017,6.99c-0.916,2.564-2.44,5.179-2.492,6.586c-0.051,1.106,0.966,1.76,2.034,1.106
		C52.644,60.664,54.119,57.244,54.779,55.635z"/>
	<path fill="#FFFFFF" d="M99.937,62.374c2.187,0,4.78-4.425,6.509-8.146c0.153-0.352,0.661,0,0.508,0.302
		c-2.593,5.329-4.577,9.051-9.102,9.051c-2.695,0-4.424-1.861-4.525-4.375c-0.915,2.112-2.39,4.375-5.441,4.375
		c-9.254,0-4.729-16.946,5.492-16.946c2.441,0,3.356,1.106,3.61,2.464c0.814-1.107,2.187-1.911,3.559-1.911
		c2.34,0,3.458,1.408,3.814,2.515c0.051,0.201-0.254,0.452-0.458,0.201c-0.559-0.654-1.322-0.453-1.983,1.257
		c-0.355,0.956-2.339,6.537-3,8.85C98.412,61.82,99.073,62.374,99.937,62.374z M96.479,49.954c0-0.05,0-0.05,0.051-0.101
		c0-1.106-0.509-1.961-1.373-1.961c-1.322,0-3.407,1.056-5.594,7.04c-1.119,3.017-2.084,7.392,0.153,7.392
		c1.983,0,3.509-4.476,4.373-6.637C94.852,53.624,95.411,52.216,96.479,49.954z"/>
	<path fill="#FFFFFF" d="M118.5,46.987h0.153c1.831,0,3.305,1.358,3.305,3.671c0,2.263-1.78,4.073-4.475,6.185
		c-2.746,2.112-5.339,4.224-5.339,6.436c0,0.453,0,0.453-0.254,0.453c-0.813,0-5.339-0.955-5.339-5.43
		c0-2.615,2.237-5.732,3.051-7.995c0.712-2.011-0.61-2.715-2.288-1.76c-0.458,0.251-0.56-0.101-0.305-0.353
		c0.61-0.603,1.678-1.056,3.051-1.056c4.271,0,4.729,3.973,3.61,6.99c-0.916,2.564-2.898,5.53-2.898,7.14
		c0,0.855,0.356,1.458,0.813,1.81c0.153-2.564,2.898-4.525,5.492-6.587c2.746-2.112,4.322-3.821,4.322-5.983
		c0-1.207-0.458-2.112-1.373-2.615c0.152,0.251,0.254,0.553,0.254,0.855c0,0.956-0.814,1.709-1.78,1.709
		c-0.966,0-1.729-0.754-1.729-1.709C116.771,47.791,117.533,46.987,118.5,46.987z"/>
	<path fill="#FFFFFF" d="M141.078,62.374c2.187,0,4.78-4.425,6.509-8.146c0.153-0.352,0.661,0,0.508,0.302
		c-2.593,5.329-4.576,9.051-9.102,9.051c-2.695,0-4.424-1.861-4.526-4.375c-0.916,2.112-2.39,4.375-5.441,4.375
		c-9.254,0-4.729-16.946,5.492-16.946c2.44,0,3.355,1.106,3.61,2.464c0.814-1.107,2.187-1.911,3.56-1.911
		c2.339,0,3.458,1.408,3.813,2.515c0.051,0.201-0.254,0.452-0.458,0.201c-0.559-0.654-1.322-0.453-1.983,1.257
		c-0.355,0.956-2.339,6.537-3,8.85C139.552,61.82,140.213,62.374,141.078,62.374z M137.62,49.954c0-0.05,0-0.05,0.051-0.101
		c0-1.106-0.508-1.961-1.373-1.961c-1.322,0-3.407,1.056-5.593,7.04c-1.119,3.017-2.085,7.392,0.153,7.392
		c1.982,0,3.508-4.476,4.373-6.637C135.993,53.624,136.552,52.216,137.62,49.954z"/>
	<path fill="#FFFFFF" d="M151.098,50.004c0.61-1.811-0.458-2.312-2.136-1.357c-0.458,0.251-0.559-0.101-0.305-0.352
		c0.61-0.603,1.881-1.056,3.254-1.056c3.966,0,4.678,3.57,3.662,6.637c-0.814,2.363-1.627,4.173-2.187,6.135
		c-0.508,1.81,0.153,2.363,1.017,2.363c2.187,0,4.78-4.425,6.509-8.146c0.152-0.352,0.661,0,0.508,0.302
		c-2.593,5.329-4.576,9.051-9.102,9.051c-3.763,0-5.441-3.319-3.966-7.09C149.318,53.976,150.437,51.965,151.098,50.004z
		 M153.284,42.361c0-1.408,1.169-2.564,2.593-2.564c1.475,0,2.644,1.156,2.644,2.564c0,1.458-1.169,2.615-2.644,2.615
		C154.454,44.976,153.284,43.819,153.284,42.361z"/>
	<path fill="#FFFFFF" d="M174.234,54.228c0.152-0.352,0.661,0,0.508,0.302c-2.593,5.329-4.576,9.051-9.102,9.051
		c-3.56,0-5.391-3.269-4.068-7.09c0.916-2.564,6.051-15.688,7.119-18.303c0.712-1.76-0.458-2.313-2.136-1.357
		c-0.458,0.251-0.56-0.101-0.305-0.352c0.61-0.604,1.881-1.056,3.254-1.056c3.966,0,4.78,3.62,3.661,6.637
		c-0.916,2.414-5.797,15.638-6.458,17.951c-0.508,1.81,0.153,2.363,1.017,2.363C169.912,62.374,172.505,57.949,174.234,54.228z"/>
	<path fill="#FFFFFF" d="M191.117,62.374c2.186,0,4.779-4.425,6.508-8.146c0.153-0.352,0.661,0,0.509,0.302
		c-2.593,5.329-4.577,9.051-9.102,9.051c-2.695,0-4.424-1.861-4.526-4.375c-0.915,2.112-2.39,4.375-5.44,4.375
		c-9.255,0-4.729-16.946,5.492-16.946c2.44,0,3.356,1.106,3.61,2.464c0.814-1.107,2.187-1.911,3.56-1.911
		c2.339,0,3.458,1.408,3.814,2.515c0.051,0.201-0.254,0.452-0.458,0.201c-0.559-0.654-1.322-0.453-1.983,1.257
		c-0.356,0.956-2.339,6.537-3,8.85C189.591,61.82,190.252,62.374,191.117,62.374z M187.659,49.954c0-0.05,0-0.05,0.051-0.101
		c0-1.106-0.508-1.961-1.373-1.961c-1.322,0-3.406,1.056-5.593,7.04c-1.119,3.017-2.085,7.392,0.153,7.392
		c1.983,0,3.508-4.476,4.373-6.637C186.032,53.624,186.591,52.216,187.659,49.954z"/>
	<path fill="#FFFFFF" d="M214.714,56.641c-1.678,3.671-5.289,6.939-10.323,6.939c-4.932,0-7.983-3.269-5.593-10.158
		c0.915-2.564,4.983-12.671,6.051-15.286c0.712-1.76-0.458-2.312-2.136-1.357c-0.458,0.251-0.559-0.101-0.305-0.352
		c0.61-0.603,1.881-1.056,3.254-1.056c3.966,0,4.779,3.621,3.661,6.637l-2.441,6.437c0.763-1.056,2.034-1.811,3.865-1.811
		c4.881,0,6,4.878,4.22,9.403c2.898-0.502,4.882-2.263,6.356-4.324c0.204-0.302,0.661-0.051,0.458,0.251
		C220.51,53.976,218.273,56.188,214.714,56.641z M209.425,55.887c-2.44-1.257-3.458-3.621-3.153-5.683
		c-1.627,4.325-3.254,8.951-3.61,10.208c-0.509,1.81-0.051,2.665,1.017,2.665C205.255,63.077,207.29,61.418,209.425,55.887z
		 M209.578,55.434c0-0.05,0-0.1,0.051-0.15c1.119-3.017,1.831-7.392-0.916-7.392C206.222,47.892,205.561,53.373,209.578,55.434z"/>
	<path fill="#FFFFFF" d="M233.124,54.228c0.152-0.352,0.661,0,0.508,0.302c-2.593,5.329-4.577,9.051-9.102,9.051
		c-3.56,0-5.39-3.269-4.068-7.09c0.915-2.564,6.051-15.688,7.119-18.303c0.712-1.76-0.458-2.313-2.135-1.357
		c-0.458,0.251-0.56-0.101-0.306-0.352c0.61-0.604,1.881-1.056,3.254-1.056c3.966,0,4.78,3.62,3.661,6.637
		c-0.915,2.414-5.797,15.638-6.458,17.951c-0.508,1.81,0.153,2.363,1.018,2.363C228.801,62.374,231.394,57.949,233.124,54.228z"/>
	<path fill="#FFFFFF" d="M242.938,46.635c6.509,0,3.967,9.152-4.271,9.152c-0.813,3.017-0.712,7.089,2.746,7.089
		c1.423,0,3.051-1.156,4.22-3.57c0.153-0.352,0.61-0.101,0.458,0.201c-1.627,3.369-3.813,4.073-5.797,4.073
		C228.141,63.581,232.208,46.635,242.938,46.635z M238.87,55.233c6.966,0,8.797-7.341,5.695-7.341c-1.322,0-3.407,1.056-5.594,7.04
		C238.921,55.032,238.87,55.133,238.87,55.233z"/>
	<path fill="#FFFFFF" d="M263.534,50.004c0.61-1.811-0.458-2.312-2.136-1.357c-0.458,0.251-0.559-0.101-0.305-0.352
		c0.61-0.603,1.881-1.056,3.254-1.056c3.966,0,4.678,3.57,3.661,6.637c-0.814,2.363-1.627,4.173-2.187,6.135
		c-0.508,1.81,0.153,2.363,1.018,2.363c2.186,0,4.779-4.425,6.508-8.146c0.152-0.352,0.661,0,0.509,0.302
		c-2.593,5.329-4.577,9.051-9.102,9.051c-3.763,0-5.441-3.319-3.966-7.09C261.754,53.976,262.873,51.965,263.534,50.004z
		 M265.72,42.361c0-1.408,1.169-2.564,2.593-2.564c1.475,0,2.644,1.156,2.644,2.564c0,1.458-1.169,2.615-2.644,2.615
		C266.89,44.976,265.72,43.819,265.72,42.361z"/>
	<path fill="#FFFFFF" d="M286.468,49.199c0-0.704-0.356-1.307-1.067-1.307c-1.119,0-2.645,1.961-3.814,4.576
		c-0.916,2.414-2.289,6.034-3,8.246c-0.609,1.811,0.458,2.313,2.135,1.357c0.458-0.251,0.561,0.101,0.306,0.353
		c-0.609,0.604-1.881,1.056-3.254,1.056c-3.966,0-4.729-3.972-3.61-6.989c0.916-2.564,1.678-4.525,2.745-7.14
		c0.713-1.76-0.457-2.112-2.135-1.257c-0.458,0.251-0.508-0.151-0.254-0.402c0.611-0.503,2.339-1.107,3.712-1.107
		c2.848,0,4.068,1.66,3.864,3.821c1.068-1.759,2.492-3.771,5.391-3.771c3.103,0,4.018,2.414,4.018,4.073
		c0,2.363-2.492,7.894-3.052,9.855c-0.406,1.559,0.204,2.312,1.067,2.312c1.171,0,2.543-1.156,3.713-3.57
		c0.152-0.352,0.61-0.101,0.457,0.201c-1.627,3.369-3.305,4.073-5.288,4.073c-3.813,0-6.102-3.218-4.779-6.99
		C284.332,54.429,286.468,51.21,286.468,49.199z"/>
	<path fill="#FFFFFF" d="M321.252,54.228c0.151-0.352,0.66,0,0.508,0.302c-2.594,5.329-4.576,9.051-9.103,9.051
		c-4.017,0-6.61-2.716-4.83-7.643c0.661-1.861,2.085-5.331,3.204-8.096h-2.137c-0.559,0-0.406-0.604,0.255-0.604h2.187l0.763-1.911
		c0.712-1.76-0.458-2.313-2.136-1.358c-0.457,0.251-0.56-0.1-0.305-0.352c0.609-0.604,1.881-1.056,3.254-1.056
		c3.509,0,4.373,2.414,3.915,4.676h2.237c0.611,0,0.458,0.604-0.254,0.604h-2.136c0,0.101-0.051,0.201-0.051,0.251
		c-0.864,2.414-3.763,10.057-4.271,12.118c-0.458,1.81,0.711,2.463,1.575,2.463C317.031,62.726,319.522,57.949,321.252,54.228z"/>
	<path fill="#FFFFFF" d="M334.117,49.199c0-0.704-0.355-1.307-1.068-1.307c-1.169,0-2.797,2.162-3.966,4.978
		c-1.322,3.57-2.491,6.838-2.796,7.844c-0.61,1.811,0.457,2.313,2.135,1.357c0.457-0.251,0.56,0.101,0.306,0.353
		c-0.61,0.604-1.882,1.056-3.255,1.056c-3.966,0-4.729-3.972-3.61-6.989c0.915-2.564,5.646-15.739,6.713-18.353
		c0.711-1.76-0.458-2.312-2.137-1.357c-0.457,0.251-0.559-0.101-0.304-0.352c0.609-0.603,1.881-1.056,3.254-1.056
		c3.966,0,4.779,3.621,3.66,6.637l-2.848,7.694c1.018-1.559,2.391-3.068,4.934-3.068c3.102,0,4.017,2.414,4.017,4.073
		c0,2.363-2.339,7.341-2.898,9.302c-0.509,1.81,0.153,2.363,1.018,2.363c2.186,0,4.779-4.425,6.509-8.146
		c0.152-0.352,0.66,0,0.508,0.302c-2.594,5.329-4.933,9.051-8.797,9.051c-3.916,0-5.542-3.168-4.22-6.99
		C331.981,54.429,334.117,51.21,334.117,49.199z"/>
	<path fill="#FFFFFF" d="M353.595,46.635c6.509,0,3.966,9.152-4.271,9.152c-0.813,3.017-0.712,7.089,2.745,7.089
		c1.425,0,3.052-1.156,4.222-3.57c0.152-0.352,0.609-0.101,0.458,0.201c-1.628,3.369-3.814,4.073-5.798,4.073
		C338.798,63.581,342.865,46.635,353.595,46.635z M349.526,55.233c6.967,0,8.797-7.341,5.695-7.341c-1.322,0-3.407,1.056-5.594,7.04
		C349.577,55.032,349.526,55.133,349.526,55.233z"/>
	<path fill="#FFFFFF" d="M380.649,48.043c-1.933,5.933-5.288,15.135-6.152,17.448C371.242,74.089,367.225,76,363.106,76
		c-5.594,0-5.491-6.134-2.187-6.134c0.967,0,1.729,0.754,1.729,1.709s-0.762,1.709-1.729,1.709c-0.661,0-1.373-0.352-1.678-0.905
		c-0.152,1.156,0.915,3.017,3.203,2.966c2.44,0,3.406-2.414,4.322-4.777c2.187-5.631,6.102-18.705,8.44-24.688
		c3.356-8.498,7.577-10.509,11.645-10.509c5.797,0,5.188,6.286,2.136,6.286c-0.966,0-1.729-0.754-1.729-1.71
		c0-0.955,0.763-1.709,1.729-1.709c0.661,0,1.475,0.402,1.78,0.955c0.152-1.156-0.662-3.218-3.255-3.118
		c-3.152,0.151-4.321,3.872-6.609,11.213c-0.052,0.05-0.052,0.1-0.052,0.15h4.067c0.611,0,0.458,0.604-0.253,0.604H380.649z"/>
	<path fill="#FFFFFF" d="M397.329,53.222c-0.56-0.301-0.916-0.854-0.916-1.559c0-0.955,0.764-1.709,1.729-1.709
		s1.78,0.754,1.78,1.709c0,0.453-0.153,0.855-0.458,1.156c0.966-0.452,1.576-1.458,1.576-2.564c0-1.609-1.118-2.917-2.898-2.917
		c-1.679,0-3.305,1.106-4.627,4.224l-0.203,0.704c-0.915,2.414-2.339,6.185-3.103,8.447c-0.609,1.811,0.458,2.313,2.136,1.357
		c0.457-0.251,0.56,0.101,0.305,0.353c-0.609,0.604-1.881,1.056-3.254,1.056c-3.966,0-4.729-3.972-3.61-6.989
		c0.915-2.564,1.678-4.525,2.746-7.14c0.712-1.76-0.458-2.112-2.136-1.257c-0.457,0.251-0.508-0.151-0.255-0.402
		c0.61-0.503,2.34-1.107,3.713-1.107c2.593,0,3.813,1.358,3.915,3.218c0.916-1.76,2.542-2.967,4.271-2.967
		c2.186,0,3.609,1.357,3.609,3.369C401.65,53.071,398.803,54.127,397.329,53.222z"/>
	<path fill="#FFFFFF" d="M419.856,54.228c0.153-0.352,0.661,0,0.509,0.302c-2.593,5.329-4.933,9.051-9.56,9.051
		c-12.407,0-8.44-16.946,2.288-16.946c6.509,0,3.966,9.152-4.271,9.152c-0.814,3.017-0.713,7.089,2.744,7.089
		C415.433,62.876,418.128,57.949,419.856,54.228z M409.025,55.233c6.967,0,8.798-7.341,5.695-7.341c-1.322,0-3.406,1.056-5.594,7.04
		C409.076,55.032,409.025,55.133,409.025,55.233z"/>
	<path fill="#FFFFFF" d="M429.672,46.635c6.509,0,3.966,9.152-4.271,9.152c-0.814,3.017-0.713,7.089,2.744,7.089
		c1.425,0,3.052-1.156,4.222-3.57c0.152-0.352,0.61-0.101,0.458,0.201c-1.628,3.369-3.814,4.073-5.798,4.073
		C414.875,63.581,418.943,46.635,429.672,46.635z M425.604,55.233c6.967,0,8.797-7.341,5.695-7.341c-1.322,0-3.406,1.056-5.594,7.04
		C425.654,55.032,425.604,55.133,425.604,55.233z"/>
	<path fill="#FFFFFF" d="M447.571,58.1c-0.102-0.352,0.356-0.402,0.561-0.201c0.354,0.302,0.711,1.056,0.711,1.911
		c0,2.766-2.288,4.375-5.136,4.375c-3.712,0-5.187-2.967-7.78-2.967c-1.475,0-2.39,1.207-1.575,2.364
		c0.254,0.452-0.102,0.502-0.407,0.251c-0.306-0.352-0.712-1.005-0.712-1.961c0-2.012,1.321-3.318,2.949-3.922l0.102-0.05
		l10.271-5.028c-2.898-0.051-4.322-2.162-6.967-2.162c-1.524,0-2.084,0.805-1.83,1.609c0.204,0.452-0.203,0.452-0.407,0.251
		c-0.355-0.302-0.711-1.056-0.711-1.911c0-2.816,2.288-4.375,5.136-4.375c3.712,0,4.372,2.966,6.763,2.966
		c1.475,0,2.34-1.207,1.525-2.414c-0.204-0.402,0.152-0.453,0.458-0.201c0.305,0.352,0.711,1.006,0.711,1.961
		c0,2.062-1.322,3.369-2.797,3.973l-10.17,4.978c2.645,0.05,4.577,2.212,7.374,2.212C447.165,59.759,447.928,59.156,447.571,58.1z"
		/>
	<path fill="#FFFFFF" d="M470.049,54.228c0.153-0.352,0.662,0,0.509,0.302c-2.593,5.329-4.932,9.051-9.559,9.051
		c-12.408,0-8.441-16.946,2.288-16.946c6.509,0,3.966,9.152-4.271,9.152c-0.813,3.017-0.712,7.089,2.745,7.089
		C465.626,62.876,468.321,57.949,470.049,54.228z M459.219,55.233c6.966,0,8.797-7.341,5.694-7.341c-1.321,0-3.406,1.056-5.593,7.04
		C459.27,55.032,459.219,55.133,459.219,55.233z"/>
	<path fill="#FFFFFF" d="M482.407,53.222c-0.56-0.301-0.916-0.854-0.916-1.559c0-0.955,0.764-1.709,1.729-1.709
		s1.78,0.754,1.78,1.709c0,0.453-0.153,0.855-0.458,1.156c0.966-0.452,1.576-1.458,1.576-2.564c0-1.609-1.118-2.917-2.898-2.917
		c-1.679,0-3.305,1.106-4.627,4.224l-0.203,0.704c-0.915,2.414-2.339,6.185-3.103,8.447c-0.609,1.811,0.458,2.313,2.136,1.357
		c0.457-0.251,0.56,0.101,0.305,0.353c-0.609,0.604-1.881,1.056-3.254,1.056c-3.966,0-4.729-3.972-3.61-6.989
		c0.915-2.564,1.678-4.525,2.746-7.14c0.712-1.76-0.458-2.112-2.136-1.257c-0.457,0.251-0.508-0.151-0.254-0.402
		c0.609-0.503,2.339-1.107,3.712-1.107c2.594,0,3.813,1.358,3.916,3.218c0.915-1.76,2.542-2.967,4.271-2.967
		c2.186,0,3.61,1.357,3.61,3.369C486.729,53.071,483.882,54.127,482.407,53.222z"/>
	<path fill="#FFFFFF" d="M509.31,46.635c2.948,0,4.117,2.012,4.117,4.023c0,1.156-0.66,2.615-2.135,2.615
		c-0.966,0-1.729-0.754-1.729-1.71s0.764-1.709,1.729-1.709c0.661,0,1.271,0.402,1.576,0.955c0.153-1.156-0.407-2.916-1.933-2.916
		c-1.322,0-3.406,1.056-5.593,7.04c-1.118,3.017-1.424,7.995,1.982,7.995c4.068,0,7.018-4.978,8.746-8.699
		c0.153-0.352,0.662,0,0.509,0.302c-2.593,5.329-5.339,9.051-9.966,9.051C494.868,63.581,498.58,46.635,509.31,46.635z"/>
	<path fill="#FFFFFF" d="M533.362,62.374c2.187,0,4.779-4.425,6.509-8.146c0.151-0.352,0.66,0,0.508,0.302
		c-2.594,5.329-4.576,9.051-9.103,9.051c-2.694,0-4.423-1.861-4.524-4.375c-0.915,2.112-2.39,4.375-5.441,4.375
		c-9.255,0-4.729-16.946,5.492-16.946c2.44,0,3.355,1.106,3.61,2.464c0.812-1.107,2.186-1.911,3.559-1.911
		c2.339,0,3.458,1.408,3.813,2.515c0.052,0.201-0.254,0.452-0.457,0.201c-0.56-0.654-1.321-0.453-1.983,1.257
		c-0.356,0.956-2.339,6.537-3,8.85C531.837,61.82,532.497,62.374,533.362,62.374z M529.903,49.954c0-0.05,0-0.05,0.052-0.101
		c0-1.106-0.508-1.961-1.373-1.961c-1.322,0-3.407,1.056-5.593,7.04c-1.119,3.017-2.086,7.392,0.152,7.392
		c1.982,0,3.509-4.476,4.372-6.637C528.277,53.624,528.836,52.216,529.903,49.954z"/>
	<path fill="#FFFFFF" d="M544.603,63.581c-6.916,0-6.967-6.99-3.509-7.794c0.864-1.71,2.492-4.777,3.254-6.738
		c0.458-2.916,2.085-3.821,3.661-3.821c0.458,0,0.61,0.302,0.306,0.503c-1.017,0.553,0.203,1.358,2.695,5.229
		C554.568,56.49,552.586,63.581,544.603,63.581z M541.907,55.686c1.424,0.05,2.542,1.207,2.542,2.615
		c0,1.458-1.169,2.614-2.644,2.614c-1.068,0-1.982-0.603-2.39-1.458c0.203,1.609,1.475,3.319,3.915,3.319
		c2.695,0,4.372-1.861,4.372-4.877c0-3.167-2.847-5.983-3.101-7.643C543.788,51.714,542.822,53.926,541.907,55.686z"/>
	<path fill="#FFFFFF" d="M566.316,46.635c6.509,0,3.966,9.152-4.271,9.152c-0.813,3.017-0.712,7.089,2.745,7.089
		c1.425,0,3.052-1.156,4.222-3.57c0.152-0.352,0.609-0.101,0.457,0.201c-1.627,3.369-3.814,4.073-5.797,4.073
		C551.519,63.581,555.587,46.635,566.316,46.635z M562.248,55.233c6.966,0,8.797-7.341,5.694-7.341c-1.321,0-3.406,1.056-5.593,7.04
		C562.299,55.032,562.248,55.133,562.248,55.233z"/>
</g>
</svg>
