<?xml version="1.0" encoding="utf-8"?>
<!-- Generator: Adobe Illustrator 16.0.0, SVG Export Plug-In . SVG Version: 6.00 Build 0)  -->
<!DOCTYPE svg PUBLIC "-//W3C//DTD SVG 1.0//EN" "http://www.w3.org/TR/2001/REC-SVG-20010904/DTD/svg10.dtd">
<svg version="1.0" id="Layer_1" xmlns="http://www.w3.org/2000/svg" xmlns:xlink="http://www.w3.org/1999/xlink" x="0px" y="0px"
	 width="750.813px" height="87.226px" viewBox="0 0 750.813 87.226" enable-background="new 0 0 750.813 87.226"
	 xml:space="preserve">
<g>
	<path fill="#FFFFFF" d="M51.718,0.617H81.31v12.772l-0.578,0.036c-0.301-3.194-1.265-5.938-2.891-8.232
		c-1.927-2.606-4.372-3.909-7.334-3.909h-1.319v19.221c0,3.051,1.523,4.575,4.57,4.575h3.812v0.703H55.53V25.08h3.775
		c3.059,0,4.589-1.524,4.589-4.575V1.284h-1.626c-3.011,0-5.456,1.405-7.334,4.215c-0.928,1.381-1.632,3.026-2.114,4.936
		c-0.156,0.648-0.313,1.633-0.47,2.954h-0.632V0.617z"/>
	<path fill="#FFFFFF" d="M85.318,25.08h0.813c1.553,0,2.707-0.375,3.459-1.125c0.753-0.75,1.129-1.901,1.129-3.45
		c0.156-0.853,0.256-1.66,0.298-2.423c0.042-0.762,0.051-1.906,0.027-3.432c-0.024-1.633-0.076-3.441-0.154-5.422
		s-0.153-3.267-0.226-3.855c-0.072-0.876-0.205-1.541-0.397-1.991c-0.193-0.45-0.488-0.832-0.885-1.144
		c-0.723-0.637-1.807-0.955-3.251-0.955h-0.868V0.617h15.916v0.667h-0.56c-1.554,0-2.707,0.375-3.46,1.126
		c-0.752,0.75-1.128,1.9-1.128,3.449v6.756h13.585V5.859c0-1.561-0.374-2.713-1.12-3.458s-1.903-1.117-3.469-1.117h-0.524V0.617
		h15.771v0.667h-0.741c-1.542,0-2.692,0.375-3.451,1.126s-1.138,1.9-1.138,3.449v14.646c0,1.538,0.385,2.684,1.156,3.44
		c0.771,0.757,1.915,1.135,3.433,1.135h0.741v0.703h-15.771V25.08h0.524c1.554,0,2.707-0.375,3.459-1.125s1.129-1.901,1.129-3.45
		v-7.151H96.032v7.151c0,1.538,0.385,2.684,1.156,3.44c0.771,0.757,1.915,1.135,3.433,1.135h0.56v0.703H85.318V25.08z"/>
	<path fill="#FFFFFF" d="M123.833,0.617h26.845v9.746h-0.542c-0.494-1.706-0.937-2.982-1.328-3.828
		c-0.392-0.847-0.9-1.648-1.526-2.405c-0.759-0.901-1.584-1.543-2.476-1.928c-1.481-0.613-3.282-0.919-5.401-0.919h-4.968v11.961
		h1.337c1.987,0,3.565-0.853,4.733-2.558c0.603-0.876,1.048-1.921,1.337-3.135c0.145-0.516,0.277-1.279,0.397-2.287h0.632v16.501
		h-0.632c-0.145-0.889-0.316-1.727-0.515-2.513c-0.199-0.786-0.422-1.426-0.668-1.918c-0.248-0.493-0.563-0.984-0.949-1.478
		c-1.083-1.333-2.625-2-4.625-2h-1.048v11.259h4.155c1.229,0,2.333-0.086,3.315-0.261c0.981-0.174,1.864-0.444,2.646-0.811
		c0.783-0.366,1.518-0.844,2.204-1.432c1.18-0.997,2.096-2.24,2.746-3.729c0.373-0.852,0.765-2.005,1.174-3.458h0.668v10.358
		h-27.478l-0.036-0.667h0.687c3.059,0,4.588-1.537,4.588-4.611V5.859c0-1.561-0.374-2.713-1.12-3.458
		c-0.747-0.745-1.903-1.117-3.469-1.117h-0.687V0.617z"/>
	<path fill="#FFFFFF" d="M169.12,0.617h18.499c1.433,0,2.818,0.142,4.155,0.423c1.337,0.283,2.385,0.658,3.144,1.126
		c0.94,0.552,1.668,1.222,2.186,2.008c0.518,0.787,0.777,1.63,0.777,2.531c0,1.465-0.813,2.732-2.439,3.801
		c-0.65,0.432-1.349,0.792-2.096,1.081c-0.747,0.289-1.801,0.619-3.161,0.991v0.072c1.734,0.325,3.161,0.715,4.282,1.171
		c3.059,1.345,4.588,3.195,4.588,5.549c0,1.297-0.461,2.429-1.382,3.396c-0.921,0.967-2.237,1.711-3.947,2.234
		s-3.727,0.784-6.052,0.784H169.12V25.08h0.741c1.554,0,2.707-0.375,3.459-1.125s1.129-1.901,1.129-3.45V5.859
		c0-1.561-0.377-2.72-1.129-3.476c-0.752-0.757-1.906-1.135-3.459-1.135h-0.741V0.617z M179.778,1.248v11.024h5.474
		c4.492,0,6.739-1.951,6.739-5.854c0-1.753-0.479-3.054-1.437-3.9c-0.958-0.846-2.436-1.27-4.435-1.27H179.778z M179.778,12.975
		v12.177h5.672c2.396,0,4.233-0.531,5.51-1.594c1.276-1.062,1.915-2.573,1.915-4.53c0-1.669-0.518-2.997-1.554-3.981
		c-0.783-0.781-1.74-1.321-2.872-1.622c-1.132-0.3-2.789-0.45-4.968-0.45H179.778z"/>
	<path fill="#FFFFFF" d="M203.063,0.617h26.846v9.746h-0.542c-0.495-1.706-0.937-2.982-1.328-3.828
		c-0.391-0.847-0.9-1.648-1.526-2.405c-0.759-0.901-1.584-1.543-2.475-1.928c-1.481-0.613-3.282-0.919-5.401-0.919h-4.968v11.961
		h1.336c1.987,0,3.565-0.853,4.733-2.558c0.602-0.876,1.047-1.921,1.336-3.135c0.145-0.516,0.277-1.279,0.398-2.287h0.632v16.501
		h-0.632c-0.145-0.889-0.317-1.727-0.515-2.513c-0.199-0.786-0.422-1.426-0.668-1.918c-0.247-0.493-0.563-0.984-0.949-1.478
		c-1.083-1.333-2.625-2-4.625-2h-1.047v11.259h4.155c1.228,0,2.333-0.086,3.314-0.261c0.982-0.174,1.864-0.444,2.647-0.811
		c0.783-0.366,1.517-0.844,2.204-1.432c1.18-0.997,2.096-2.24,2.746-3.729c0.373-0.852,0.765-2.005,1.175-3.458h0.668v10.358
		h-27.478l-0.036-0.667h0.687c3.059,0,4.589-1.537,4.589-4.611V5.859c0-1.561-0.374-2.713-1.12-3.458
		c-0.747-0.745-1.903-1.117-3.469-1.117h-0.687V0.617z"/>
	<path fill="#FFFFFF" d="M258.812,1.104h0.632v8.629h-0.632c-0.759-2.078-1.62-3.699-2.583-4.864
		c-0.698-0.817-1.575-1.534-2.628-2.153c-1.054-0.619-2.234-1.105-3.541-1.459s-2.628-0.531-3.965-0.531
		c-1,0-1.891,0.138-2.673,0.414c-0.783,0.276-1.445,0.685-1.987,1.225c-0.385,0.384-0.693,0.817-0.921,1.297
		c-0.229,0.48-0.343,0.943-0.343,1.387c0,0.84,0.325,1.567,0.976,2.18c0.301,0.3,0.731,0.588,1.292,0.865
		c0.561,0.276,1.283,0.546,2.168,0.811s2.123,0.588,3.712,0.973c0.434,0.132,0.729,0.21,0.885,0.234l0.885,0.216l1.409,0.36
		c2.384,0.613,4.125,1.153,5.221,1.621c1.095,0.469,2.029,1.087,2.8,1.855c0.602,0.565,1.068,1.225,1.4,1.982
		c0.331,0.757,0.497,1.574,0.497,2.45c0,0.865-0.187,1.733-0.56,2.603c-0.374,0.871-0.903,1.637-1.59,2.297
		c-0.892,0.913-1.99,1.597-3.297,2.054c-1.307,0.457-2.797,0.685-4.471,0.685c-1.168,0-2.267-0.117-3.297-0.352
		c-1.03-0.234-2.286-0.663-3.767-1.288c-0.963-0.384-1.698-0.646-2.204-0.784c-0.506-0.138-0.981-0.208-1.427-0.208
		c-0.855,0-1.581,0.226-2.177,0.676c-0.596,0.45-0.99,1.09-1.183,1.918h-0.633V14.56h0.633c0.253,2.066,1.089,3.939,2.511,5.62
		c0.855,0.985,1.948,1.901,3.279,2.748c1.33,0.847,2.725,1.504,4.182,1.973c1.457,0.468,2.842,0.703,4.155,0.703
		c1.167,0,2.237-0.192,3.207-0.577c0.969-0.384,1.725-0.918,2.268-1.604c0.542-0.684,0.812-1.459,0.812-2.323
		c0-0.913-0.367-1.735-1.102-2.468c-0.338-0.324-0.774-0.624-1.31-0.901c-0.536-0.276-1.229-0.559-2.078-0.846
		c-0.849-0.289-2.014-0.631-3.496-1.027l-1.807-0.486c-2.818-0.756-4.769-1.345-5.853-1.765c-1.217-0.444-2.171-0.889-2.863-1.333
		c-0.693-0.444-1.292-1.008-1.797-1.693c-0.748-0.96-1.121-2.017-1.121-3.17c0-1.393,0.416-2.645,1.247-3.756
		c0.831-1.11,1.993-1.978,3.486-2.603c1.493-0.624,3.149-0.937,4.968-0.937c2.746,0,5.594,0.763,8.545,2.288
		c1.036,0.516,1.74,0.774,2.114,0.774C257.728,3.175,258.402,2.484,258.812,1.104z"/>
	<path fill="#FFFFFF" d="M265.584,0.617h29.591v12.772l-0.578,0.036c-0.301-3.194-1.265-5.938-2.891-8.232
		c-1.927-2.606-4.372-3.909-7.334-3.909h-1.319v19.221c0,3.051,1.523,4.575,4.57,4.575h3.812v0.703h-22.04V25.08h3.775
		c3.059,0,4.589-1.524,4.589-4.575V1.284h-1.626c-3.011,0-5.456,1.405-7.334,4.215c-0.928,1.381-1.632,3.026-2.114,4.936
		c-0.157,0.648-0.313,1.633-0.47,2.954h-0.632V0.617z"/>
	<path fill="#FFFFFF" d="M329.045,0.113c2.361,0,4.52,0.375,6.477,1.126c1.957,0.75,3.658,1.846,5.103,3.288
		c1.216,1.225,2.156,2.591,2.818,4.098c0.662,1.507,0.993,3.048,0.993,4.621c0,2.366-0.671,4.546-2.014,6.54
		c-1.343,1.993-3.167,3.573-5.474,4.737c-2.307,1.165-4.833,1.748-7.578,1.748c-2.096,0-4.068-0.331-5.917-0.991
		c-1.849-0.66-3.478-1.594-4.887-2.801c-1.41-1.207-2.508-2.615-3.297-4.224c-0.789-1.609-1.183-3.291-1.183-5.044
		c0-2.33,0.68-4.503,2.042-6.521c1.361-2.018,3.185-3.618,5.474-4.801C323.891,0.705,326.372,0.113,329.045,0.113z M329.516,0.762
		c-1.096,0-2.129,0.189-3.099,0.567s-1.786,0.916-2.448,1.612c-0.723,0.757-1.34,1.654-1.852,2.693
		c-0.512,1.039-0.897,2.198-1.156,3.477c-0.259,1.279-0.389,2.657-0.389,4.134c0,1.85,0.205,3.534,0.614,5.053
		c0.41,1.52,1,2.828,1.771,3.928c0.771,1.099,1.692,1.936,2.764,2.513c1.072,0.576,2.264,0.865,3.577,0.865
		c1.782,0,3.333-0.507,4.652-1.522c1.319-1.015,2.331-2.465,3.035-4.351s1.057-4.125,1.057-6.719c0-1.682-0.192-3.254-0.578-4.72
		c-0.386-1.465-0.94-2.741-1.662-3.828c-0.723-1.087-1.596-1.949-2.62-2.585c-0.505-0.336-1.09-0.606-1.751-0.811
		C330.768,0.863,330.129,0.762,329.516,0.762z"/>
	<path fill="#FFFFFF" d="M360.315,1.284V12.2h1.59c1.674,0,2.981-0.546,3.92-1.639c0.94-1.093,1.614-2.858,2.023-5.296h0.632v14.429
		h-0.668c-0.193-1.249-0.428-2.24-0.705-2.972s-0.657-1.387-1.138-1.964c-1.023-1.261-2.493-1.892-4.408-1.892h-1.247v7.638
		c0,1.549,0.376,2.699,1.129,3.45s1.9,1.125,3.442,1.125h1.607v0.703h-16.729V25.08h0.632c1.554,0,2.707-0.375,3.459-1.125
		s1.129-1.901,1.129-3.45V5.859c0-1.561-0.374-2.713-1.12-3.458c-0.747-0.745-1.903-1.117-3.469-1.117h-0.632V0.617h27.604v10.881
		h-0.598c-0.18-0.937-0.379-1.795-0.596-2.576s-0.428-1.381-0.632-1.801c-0.603-1.333-1.333-2.429-2.195-3.288
		c-0.861-0.858-1.879-1.498-3.053-1.918c-1.174-0.42-2.508-0.63-4.001-0.63H360.315z"/>
	<path fill="#FFFFFF" d="M394.872,0.617h18.499c1.434,0,2.818,0.142,4.155,0.423c1.337,0.283,2.384,0.658,3.144,1.126
		c0.939,0.552,1.668,1.222,2.186,2.008c0.518,0.787,0.776,1.63,0.776,2.531c0,1.465-0.812,2.732-2.438,3.801
		c-0.649,0.432-1.35,0.792-2.096,1.081c-0.747,0.289-1.8,0.619-3.161,0.991v0.072c1.734,0.325,3.161,0.715,4.281,1.171
		c3.059,1.345,4.589,3.195,4.589,5.549c0,1.297-0.461,2.429-1.382,3.396c-0.922,0.967-2.237,1.711-3.948,2.234
		c-1.709,0.522-3.728,0.784-6.051,0.784h-18.554V25.08h0.74c1.555,0,2.707-0.375,3.46-1.125c0.752-0.75,1.129-1.901,1.129-3.45
		V5.859c0-1.561-0.377-2.72-1.129-3.476c-0.753-0.757-1.905-1.135-3.46-1.135h-0.74V0.617z M405.531,1.248v11.024h5.474
		c4.491,0,6.738-1.951,6.738-5.854c0-1.753-0.479-3.054-1.437-3.9c-0.957-0.846-2.436-1.27-4.436-1.27H405.531z M405.531,12.975
		v12.177h5.672c2.396,0,4.233-0.531,5.511-1.594c1.276-1.062,1.914-2.573,1.914-4.53c0-1.669-0.518-2.997-1.553-3.981
		c-0.784-0.781-1.741-1.321-2.873-1.622c-1.132-0.3-2.788-0.45-4.968-0.45H405.531z"/>
	<path fill="#FFFFFF" d="M445.833,13.461h-5.672v7.043c0,1.538,0.379,2.684,1.138,3.44c0.759,0.757,1.908,1.135,3.451,1.135h0.74
		v0.703h-15.934V25.08h0.687c1.553,0,2.707-0.375,3.459-1.125c0.753-0.75,1.129-1.901,1.129-3.45V5.859
		c0-1.561-0.373-2.713-1.119-3.458c-0.747-0.745-1.904-1.117-3.469-1.117h-0.687V0.617h19.564c2.649,0,4.745,0.192,6.286,0.576
		c1.542,0.385,2.765,1.033,3.668,1.946c0.518,0.517,0.931,1.129,1.238,1.837c0.307,0.708,0.46,1.412,0.46,2.108
		c0,1.897-0.987,3.423-2.963,4.576c-0.734,0.396-1.733,0.75-2.999,1.062c-1.265,0.312-2.522,0.522-3.775,0.631
		c-0.951,0.072-2.402,0.108-4.354,0.108v0.072c0.963,0.624,1.837,1.141,2.619,1.549c0.783,0.408,1.571,0.753,2.366,1.036
		c0.796,0.282,1.698,0.537,2.71,0.766l0.596,0.9c0.397,0.577,0.692,1.009,0.887,1.297c0.192,0.289,0.415,0.619,0.668,0.991
		c0.674,1.021,1.315,1.907,1.924,2.657c0.607,0.751,1.11,1.276,1.509,1.577c0.782,0.516,1.902,0.774,3.359,0.774h0.705v0.703h-9.467
		L445.833,13.461z M440.161,12.795h7.189c1.698,0,3.092-0.207,4.182-0.622c1.091-0.415,1.903-1.044,2.439-1.892
		c0.536-0.847,0.804-1.937,0.804-3.27c0-3.819-2.438-5.729-7.316-5.729h-7.298V12.795z"/>
	<path fill="#FFFFFF" d="M483.679,0.113c2.359,0,4.52,0.375,6.476,1.126c1.958,0.75,3.658,1.846,5.104,3.288
		c1.216,1.225,2.155,2.591,2.817,4.098c0.662,1.507,0.994,3.048,0.994,4.621c0,2.366-0.672,4.546-2.015,6.54
		c-1.343,1.993-3.168,3.573-5.474,4.737c-2.307,1.165-4.833,1.748-7.578,1.748c-2.096,0-4.067-0.331-5.917-0.991
		c-1.849-0.66-3.478-1.594-4.887-2.801c-1.408-1.207-2.509-2.615-3.297-4.224c-0.789-1.609-1.183-3.291-1.183-5.044
		c0-2.33,0.68-4.503,2.041-6.521s3.186-3.618,5.474-4.801C478.524,0.705,481.005,0.113,483.679,0.113z M484.149,0.762
		c-1.097,0-2.13,0.189-3.099,0.567c-0.97,0.378-1.786,0.916-2.448,1.612c-0.723,0.757-1.34,1.654-1.852,2.693
		c-0.512,1.039-0.896,2.198-1.155,3.477c-0.26,1.279-0.39,2.657-0.39,4.134c0,1.85,0.205,3.534,0.615,5.053
		c0.409,1.52,0.999,2.828,1.77,3.928c0.771,1.099,1.692,1.936,2.765,2.513c1.071,0.576,2.264,0.865,3.577,0.865
		c1.782,0,3.332-0.507,4.651-1.522c1.318-1.015,2.33-2.465,3.035-4.351s1.057-4.125,1.057-6.719c0-1.682-0.192-3.254-0.578-4.72
		c-0.385-1.465-0.938-2.741-1.662-3.828c-0.723-1.087-1.596-1.949-2.619-2.585c-0.507-0.336-1.091-0.606-1.753-0.811
		C485.401,0.863,484.763,0.762,484.149,0.762z"/>
	<path fill="#FFFFFF" d="M520.603,0.113c2.36,0,4.52,0.375,6.477,1.126s3.658,1.846,5.104,3.288
		c1.216,1.225,2.155,2.591,2.818,4.098c0.662,1.507,0.993,3.048,0.993,4.621c0,2.366-0.671,4.546-2.015,6.54
		c-1.343,1.993-3.167,3.573-5.474,4.737c-2.307,1.165-4.832,1.748-7.578,1.748c-2.095,0-4.067-0.331-5.916-0.991
		c-1.85-0.66-3.478-1.594-4.888-2.801c-1.408-1.207-2.508-2.615-3.296-4.224c-0.79-1.609-1.184-3.291-1.184-5.044
		c0-2.33,0.68-4.503,2.042-6.521c1.36-2.018,3.186-3.618,5.473-4.801C515.449,0.705,517.929,0.113,520.603,0.113z M521.073,0.762
		c-1.096,0-2.129,0.189-3.099,0.567s-1.785,0.916-2.447,1.612c-0.724,0.757-1.341,1.654-1.853,2.693
		c-0.512,1.039-0.896,2.198-1.155,3.477s-0.389,2.657-0.389,4.134c0,1.85,0.205,3.534,0.614,5.053
		c0.409,1.52,0.999,2.828,1.77,3.928c0.771,1.099,1.693,1.936,2.765,2.513c1.071,0.576,2.265,0.865,3.577,0.865
		c1.783,0,3.333-0.507,4.651-1.522c1.319-1.015,2.331-2.465,3.035-4.351c0.705-1.885,1.057-4.125,1.057-6.719
		c0-1.682-0.192-3.254-0.578-4.72c-0.385-1.465-0.938-2.741-1.661-3.828s-1.597-1.949-2.62-2.585
		c-0.506-0.336-1.09-0.606-1.752-0.811C522.325,0.863,521.687,0.762,521.073,0.762z"/>
	<path fill="#FFFFFF" d="M541.918,0.617h15.971v0.63h-0.741c-1.518,0-2.661,0.381-3.433,1.144c-0.771,0.763-1.156,1.918-1.156,3.467
		v10.953l11.959-9.547c0.795-0.66,1.328-1.198,1.6-1.612c0.271-0.415,0.406-0.898,0.406-1.451c0-0.9-0.386-1.618-1.156-2.152
		c-0.771-0.534-1.818-0.802-3.143-0.802h-0.598v-0.63h14.76v0.63h-0.361c-2.035,0-4.932,1.513-8.689,4.54l-4.967,3.945l7.623,11.655
		c0.843,1.297,1.73,2.237,2.664,2.819c0.934,0.583,2.021,0.874,3.261,0.874h0.47v0.703h-15.572V25.08h0.812
		c2.301,0,3.451-0.54,3.451-1.621c0-0.192-0.052-0.399-0.154-0.622c-0.102-0.222-0.31-0.579-0.623-1.071l-5.78-8.899l-5.962,4.756
		v2.882c0,1.538,0.386,2.684,1.156,3.44c0.771,0.757,1.915,1.135,3.433,1.135h0.741v0.703h-15.935V25.08h0.705
		c1.554,0,2.712-0.378,3.478-1.135c0.765-0.756,1.147-1.903,1.147-3.44V5.859c0-1.549-0.383-2.705-1.147-3.467
		c-0.766-0.763-1.924-1.144-3.478-1.144h-0.741V0.617z"/>
	<path fill="#FFFFFF" d="M579.529,0.617h17.216v0.667h-1.824c-1.553,0-2.704,0.373-3.45,1.117c-0.747,0.745-1.12,1.897-1.12,3.458
		v19.257h6.539c1.289,0,2.506-0.285,3.649-0.855c1.145-0.57,2.139-1.366,2.981-2.387c0.506-0.636,0.951-1.267,1.336-1.891
		c0.387-0.624,0.754-1.381,1.103-2.27c0.35-0.889,0.692-1.91,1.03-3.062h0.668v11.133h-28.128l-0.036-0.667h0.939
		c3.059,0,4.588-1.537,4.588-4.611V5.859c0-3.05-1.529-4.575-4.588-4.575h-0.903V0.617z"/>
	<path fill="#FFFFFF" d="M612.135,0.617h16.169v0.63h-1.879c-0.746,0-1.327,0.138-1.743,0.415s-0.623,0.667-0.623,1.171
		c0,0.252,0.06,0.489,0.181,0.711c0.12,0.223,0.476,0.76,1.066,1.612l6.268,8.628l5.619-7.367c0.759-0.96,1.138-1.784,1.138-2.468
		c0-0.793-0.331-1.436-0.993-1.928c-0.662-0.493-1.524-0.739-2.584-0.739h-1.661V0.617h12.971v0.63
		c-0.855,0.096-1.626,0.256-2.312,0.478c-0.687,0.222-1.318,0.511-1.896,0.865c-0.578,0.354-1.178,0.832-1.798,1.432
		c-0.621,0.601-1.22,1.273-1.798,2.018l-6.359,8.376v6.089c0,1.538,0.38,2.684,1.139,3.44c0.759,0.757,1.908,1.135,3.451,1.135
		h1.697v0.703H620.21V25.08h1.771c1.553,0,2.706-0.375,3.46-1.125c0.752-0.75,1.128-1.901,1.128-3.45v-5.422l-7.551-10.287
		c-0.964-1.321-1.909-2.236-2.837-2.747c-0.927-0.511-2.125-0.766-3.595-0.766h-0.452V0.617z"/>
	<path fill="#FFFFFF" d="M650.325,0.617h10.135L678,18.739V7.895c0-1.321-0.226-2.477-0.678-3.468
		c-0.451-0.991-1.104-1.745-1.96-2.261c-0.458-0.288-0.919-0.492-1.382-0.613c-0.464-0.12-1.11-0.21-1.941-0.27V0.617h12.501v0.667
		h-0.253c-1.819,0-3.204,0.577-4.155,1.729c-0.952,1.152-1.428,2.828-1.428,5.026v17.996h-0.596L656.323,3.716v14.951
		c0,1.454,0.174,2.616,0.523,3.486c0.349,0.871,0.915,1.552,1.697,2.044c0.639,0.384,1.416,0.631,2.331,0.739
		c0.506,0.084,1.229,0.144,2.168,0.18v0.667h-13.17v-0.667c1.349-0.072,2.448-0.309,3.297-0.711c0.85-0.402,1.476-1,1.879-1.792
		c0.403-0.793,0.604-1.777,0.604-2.955V5.427c0-0.877-0.195-1.622-0.587-2.234c-0.392-0.613-0.96-1.084-1.706-1.415
		c-0.747-0.33-1.651-0.495-2.711-0.495h-0.324V0.617z"/>
	<path fill="#FFFFFF" d="M-0.093,70.878h0.704c1.554,0,2.707-0.375,3.46-1.125c0.752-0.75,1.128-1.901,1.128-3.45
		c0.096-0.648,0.172-1.222,0.226-1.72c0.054-0.499,0.087-1.069,0.099-1.711c0.012-0.643,0.012-1.451,0-2.423
		c-0.048-4.107-0.168-7.2-0.361-9.277c-0.072-0.841-0.208-1.495-0.406-1.964c-0.199-0.468-0.497-0.858-0.894-1.17
		C3.14,47.4,2.056,47.082,0.611,47.082h-0.704v-0.667h15.897v0.667h-0.705c-1.553,0-2.704,0.373-3.45,1.117
		c-0.747,0.745-1.12,1.897-1.12,3.458v14.646c0,1.549,0.376,2.699,1.129,3.45c0.752,0.75,1.899,1.125,3.441,1.125h0.705v0.703
		H-0.093V70.878z"/>
	<path fill="#FFFFFF" d="M20.427,46.416h10.135l17.542,18.122V53.693c0-1.321-0.226-2.477-0.677-3.467
		c-0.452-0.991-1.105-1.745-1.96-2.261c-0.458-0.289-0.918-0.493-1.382-0.613c-0.464-0.12-1.111-0.21-1.942-0.27v-0.667h12.501
		v0.667H54.39c-1.819,0-3.204,0.577-4.155,1.729c-0.952,1.153-1.427,2.828-1.427,5.026v17.996h-0.596L26.425,49.514v14.951
		c0,1.454,0.174,2.615,0.524,3.486c0.35,0.871,0.916,1.552,1.698,2.044c0.639,0.384,1.415,0.631,2.33,0.739
		c0.506,0.084,1.229,0.144,2.168,0.18v0.667h-13.17v-0.667c1.349-0.072,2.448-0.309,3.297-0.711c0.849-0.402,1.475-1,1.878-1.792
		s0.605-1.777,0.605-2.954V51.226c0-0.877-0.196-1.622-0.587-2.234c-0.392-0.612-0.96-1.083-1.707-1.414
		c-0.747-0.33-1.65-0.495-2.71-0.495h-0.325V46.416z"/>
	<path fill="#FFFFFF" d="M71.278,46.416h26.846v9.746h-0.542c-0.494-1.706-0.937-2.981-1.328-3.828
		c-0.391-0.847-0.9-1.649-1.526-2.405c-0.759-0.901-1.584-1.543-2.475-1.927c-1.481-0.613-3.282-0.919-5.401-0.919h-4.968v11.961
		h1.337c1.987,0,3.565-0.853,4.733-2.558c0.603-0.876,1.048-1.921,1.337-3.135c0.145-0.516,0.277-1.279,0.397-2.288h0.632v16.501
		h-0.632c-0.145-0.889-0.316-1.727-0.515-2.513c-0.199-0.787-0.422-1.426-0.668-1.919c-0.247-0.492-0.563-0.984-0.949-1.477
		c-1.083-1.333-2.625-2-4.625-2h-1.048v11.259h4.155c1.228,0,2.333-0.087,3.314-0.261c0.982-0.174,1.864-0.444,2.647-0.81
		c0.783-0.366,1.517-0.844,2.204-1.433c1.18-0.997,2.096-2.24,2.746-3.729c0.373-0.852,0.765-2.005,1.175-3.459h0.668v10.358H71.314
		l-0.036-0.667h0.687c3.059,0,4.589-1.537,4.589-4.611V51.657c0-1.561-0.374-2.713-1.12-3.458c-0.747-0.745-1.903-1.117-3.469-1.117
		h-0.687V46.416z"/>
	<path fill="#FFFFFF" d="M102.837,46.416h14.76v0.667h-1.807c-0.819,0-1.463,0.168-1.933,0.504c-0.47,0.336-0.705,0.811-0.705,1.423
		c0,0.577,0.174,1.261,0.524,2.054l6.882,15.06l5.781-12.988c0.458-0.997,0.686-1.855,0.686-2.576c0-1.032-0.322-1.855-0.966-2.468
		c-0.645-0.613-1.539-0.949-2.683-1.009v-0.667h10.17v0.667c-0.964,0.108-1.824,0.388-2.583,0.837
		c-0.759,0.451-1.451,1.099-2.078,1.946c-0.626,0.847-1.258,1.972-1.897,3.377l-8.382,18.825l-0.632,0.036l-9.773-21.257
		c-1.156-2.51-2.65-3.765-4.48-3.765h-0.886V46.416z"/>
	<path fill="#FFFFFF" d="M137.07,46.416h26.845v9.746h-0.542c-0.494-1.706-0.937-2.981-1.328-3.828
		c-0.391-0.847-0.9-1.649-1.526-2.405c-0.759-0.901-1.583-1.543-2.475-1.927c-1.481-0.613-3.282-0.919-5.401-0.919h-4.968v11.961
		h1.337c1.987,0,3.564-0.853,4.733-2.558c0.602-0.876,1.048-1.921,1.337-3.135c0.145-0.516,0.277-1.279,0.397-2.288h0.632v16.501
		h-0.632c-0.145-0.889-0.316-1.727-0.515-2.513c-0.199-0.787-0.422-1.426-0.669-1.919c-0.247-0.492-0.563-0.984-0.948-1.477
		c-1.084-1.333-2.625-2-4.625-2h-1.047v11.259h4.155c1.229,0,2.333-0.087,3.315-0.261c0.981-0.174,1.864-0.444,2.646-0.81
		c0.783-0.366,1.518-0.844,2.204-1.433c1.18-0.997,2.096-2.24,2.746-3.729c0.373-0.852,0.765-2.005,1.174-3.459h0.668v10.358
		h-27.478l-0.036-0.667h0.687c3.059,0,4.588-1.537,4.588-4.611V51.657c0-1.561-0.374-2.713-1.12-3.458
		c-0.748-0.745-1.903-1.117-3.469-1.117h-0.687V46.416z"/>
	<path fill="#FFFFFF" d="M186.026,59.26h-5.672v7.043c0,1.537,0.379,2.684,1.138,3.44c0.759,0.757,1.909,1.135,3.451,1.135h0.741
		v0.703h-15.934v-0.703h0.687c1.553,0,2.707-0.375,3.459-1.125s1.129-1.901,1.129-3.45V51.657c0-1.561-0.373-2.713-1.12-3.458
		c-0.747-0.745-1.903-1.117-3.468-1.117h-0.687v-0.667h19.565c2.649,0,4.745,0.192,6.287,0.576c1.542,0.385,2.764,1.033,3.667,1.946
		c0.518,0.517,0.931,1.129,1.238,1.837s0.46,1.411,0.46,2.108c0,1.897-0.987,3.423-2.962,4.575c-0.735,0.396-1.734,0.75-2.999,1.063
		s-2.523,0.522-3.776,0.63c-0.951,0.072-2.402,0.108-4.354,0.108v0.072c0.963,0.624,1.836,1.141,2.619,1.549
		c0.783,0.408,1.572,0.753,2.367,1.036c0.795,0.282,1.698,0.537,2.71,0.766l0.596,0.9c0.397,0.577,0.693,1.009,0.885,1.297
		c0.193,0.289,0.416,0.619,0.668,0.991c0.674,1.021,1.316,1.907,1.924,2.657c0.608,0.751,1.111,1.276,1.509,1.576
		c0.783,0.517,1.903,0.774,3.36,0.774h0.705v0.703h-9.466L186.026,59.26z M180.354,58.593h7.19c1.698,0,3.092-0.207,4.182-0.621
		s1.903-1.045,2.439-1.892c0.536-0.847,0.804-1.937,0.804-3.27c0-3.819-2.438-5.729-7.316-5.729h-7.298V58.593z"/>
	<path fill="#FFFFFF" d="M208.064,46.416h16.168v0.63h-1.879c-0.747,0-1.328,0.138-1.743,0.415c-0.416,0.276-0.624,0.667-0.624,1.17
		c0,0.252,0.061,0.49,0.181,0.712c0.121,0.222,0.476,0.76,1.066,1.612l6.269,8.628l5.618-7.368c0.759-0.96,1.139-1.783,1.139-2.468
		c0-0.792-0.332-1.435-0.994-1.927c-0.663-0.493-1.524-0.739-2.583-0.739h-1.662v-0.667h12.971v0.63
		c-0.855,0.096-1.626,0.255-2.312,0.478s-1.319,0.511-1.897,0.865c-0.578,0.354-1.177,0.832-1.797,1.432s-1.22,1.273-1.797,2.017
		l-6.359,8.377v6.089c0,1.537,0.379,2.684,1.138,3.44c0.759,0.757,1.909,1.135,3.451,1.135h1.698v0.703H216.14v-0.703h1.771
		c1.554,0,2.707-0.375,3.459-1.125c0.752-0.75,1.129-1.901,1.129-3.45v-5.422l-7.551-10.286c-0.964-1.321-1.909-2.236-2.836-2.747
		c-0.928-0.511-2.125-0.766-3.595-0.766h-0.452V46.416z"/>
	<path fill="#FFFFFF" d="M259.06,46.416h15.066c0.892,0,1.867,0.03,2.927,0.09c1.06,0.06,2.011,0.135,2.854,0.225
		c0.843,0.09,1.542,0.195,2.096,0.315c1.987,0.421,3.508,1.174,4.562,2.261c1.053,1.087,1.581,2.435,1.581,4.044
		c0,1.105-0.253,2.09-0.759,2.955c-0.506,0.864-1.25,1.594-2.231,2.188c-0.982,0.594-2.183,1.047-3.604,1.36
		s-3.022,0.468-4.805,0.468h-6.919v5.981c0,3.074,1.529,4.611,4.589,4.611h1.264v0.667h-16.656v-0.667h0.885
		c3.059,0,4.589-1.537,4.589-4.611V51.657c0-3.05-1.53-4.575-4.589-4.575h-0.849V46.416z M269.827,47.082V59.62h5.041
		c2.493,0,4.335-0.513,5.528-1.54c1.192-1.026,1.788-2.615,1.788-4.765c0-2.509-0.825-4.257-2.475-5.242
		c-0.59-0.348-1.283-0.601-2.078-0.757c-0.795-0.156-1.783-0.234-2.962-0.234H269.827z"/>
	<path fill="#FFFFFF" d="M293.003,70.878h0.704c1.554,0,2.707-0.375,3.46-1.125c0.752-0.75,1.129-1.901,1.129-3.45
		c0.096-0.648,0.172-1.222,0.226-1.72c0.054-0.499,0.087-1.069,0.099-1.711c0.012-0.643,0.012-1.451,0-2.423
		c-0.048-4.107-0.168-7.2-0.361-9.277c-0.072-0.841-0.208-1.495-0.406-1.964c-0.199-0.468-0.497-0.858-0.895-1.17
		c-0.722-0.637-1.807-0.955-3.252-0.955h-0.704v-0.667h15.897v0.667h-0.705c-1.554,0-2.704,0.373-3.451,1.117
		s-1.12,1.897-1.12,3.458v14.646c0,1.549,0.376,2.699,1.129,3.45c0.752,0.75,1.899,1.125,3.441,1.125h0.705v0.703h-15.897V70.878z"
		/>
	<path fill="#FFFFFF" d="M313.524,46.416h10.135l17.542,18.122V53.693c0-1.321-0.227-2.477-0.678-3.467
		c-0.452-0.991-1.105-1.745-1.96-2.261c-0.458-0.289-0.918-0.493-1.381-0.613c-0.464-0.12-1.111-0.21-1.942-0.27v-0.667h12.501
		v0.667h-0.253c-1.819,0-3.204,0.577-4.155,1.729c-0.952,1.153-1.428,2.828-1.428,5.026v17.996h-0.596l-21.787-22.319v14.951
		c0,1.454,0.174,2.615,0.524,3.486c0.349,0.871,0.915,1.552,1.698,2.044c0.638,0.384,1.415,0.631,2.33,0.739
		c0.506,0.084,1.229,0.144,2.168,0.18v0.667h-13.17v-0.667c1.349-0.072,2.448-0.309,3.297-0.711c0.849-0.402,1.475-1,1.879-1.792
		c0.403-0.792,0.605-1.777,0.605-2.954V51.226c0-0.877-0.196-1.622-0.587-2.234c-0.392-0.612-0.961-1.083-1.708-1.414
		c-0.747-0.33-1.65-0.495-2.709-0.495h-0.326V46.416z"/>
	<path fill="#FFFFFF" d="M351.153,46.416h29.59v12.772l-0.578,0.036c-0.301-3.194-1.264-5.938-2.89-8.232
		c-1.928-2.606-4.372-3.909-7.335-3.909h-1.318v19.221c0,3.05,1.523,4.575,4.57,4.575h3.812v0.703h-22.039v-0.703h3.775
		c3.059,0,4.589-1.525,4.589-4.575V47.082h-1.626c-3.011,0-5.456,1.405-7.335,4.215c-0.927,1.381-1.632,3.026-2.114,4.936
		c-0.156,0.648-0.313,1.633-0.469,2.954h-0.632V46.416z"/>
	<path fill="#FFFFFF" d="M406.82,64.502c2.029,0,3.719,1.686,3.719,3.708c0,2.023-1.689,3.641-3.719,3.641
		c-2.028,0-3.651-1.618-3.651-3.641C403.168,66.188,404.792,64.502,406.82,64.502z"/>
	<path fill="#FFFFFF" d="M424.062,64.502c2.029,0,3.719,1.686,3.719,3.708c0,2.023-1.689,3.641-3.719,3.641
		c-2.027,0-3.651-1.618-3.651-3.641C420.411,66.188,422.035,64.502,424.062,64.502z"/>
	<path fill="#FFFFFF" d="M441.304,64.502c2.028,0,3.719,1.686,3.719,3.708c0,2.023-1.69,3.641-3.719,3.641s-3.651-1.618-3.651-3.641
		C437.653,66.188,439.276,64.502,441.304,64.502z"/>
	<path fill="#FFFFFF" d="M472.342,70.276c2.679,0,5.856-5.467,7.975-10.064c0.187-0.435,0.81,0,0.623,0.373
		c-3.178,6.585-5.607,11.183-11.152,11.183c-3.302,0-5.42-2.298-5.544-5.405c-1.122,2.609-2.929,5.405-6.667,5.405
		c-11.339,0-5.795-20.936,6.729-20.936c2.99,0,4.112,1.366,4.424,3.044c0.996-1.367,2.678-2.361,4.36-2.361
		c2.866,0,4.237,1.74,4.673,3.106c0.062,0.249-0.312,0.56-0.561,0.249c-0.686-0.808-1.619-0.559-2.43,1.553
		c-0.437,1.18-2.865,8.076-3.676,10.934C470.473,69.593,471.283,70.276,472.342,70.276z M468.106,54.932
		c0-0.062,0-0.062,0.062-0.124c0-1.367-0.624-2.423-1.683-2.423c-1.62,0-4.175,1.305-6.854,8.698
		c-1.37,3.728-2.554,9.133,0.187,9.133c2.431,0,4.3-5.529,5.358-8.201C466.112,59.467,466.797,57.728,468.106,54.932z"/>
	<path fill="#FFFFFF" d="M496.39,54c0-0.87-0.436-1.616-1.308-1.616c-1.371,0-3.24,2.423-4.674,5.653
		c-1.121,2.982-2.803,7.456-3.676,10.189c-0.747,2.236,0.561,2.858,2.617,1.677c0.561-0.311,0.686,0.125,0.374,0.435
		c-0.748,0.746-2.305,1.305-3.987,1.305c-4.859,0-5.794-4.908-4.424-8.636c1.121-3.168,2.057-5.591,3.364-8.822
		c0.872-2.174-0.561-2.609-2.616-1.553c-0.561,0.311-0.623-0.186-0.312-0.497c0.747-0.622,2.866-1.367,4.548-1.367
		c3.489,0,4.984,2.05,4.734,4.721c1.31-2.174,3.053-4.659,6.604-4.659c3.801,0,4.922,2.982,4.922,5.032
		c0,2.919-2.865,9.07-3.552,11.493c-0.623,2.236,0.188,2.919,1.247,2.919c2.679,0,5.855-5.467,7.975-10.064
		c0.187-0.435,0.81,0,0.623,0.373c-3.178,6.585-6.044,11.183-10.779,11.183c-4.797,0-6.79-3.914-5.17-8.635
		C493.774,60.461,496.39,56.485,496.39,54z"/>
	<path fill="#FFFFFF" d="M524.3,53.13c1.993-5.342,4.175-10.996,4.922-12.798c0.872-2.174-0.561-2.857-2.616-1.677
		c-0.562,0.311-0.686-0.124-0.374-0.435c0.748-0.746,2.305-1.305,3.987-1.305c4.859,0,5.856,4.473,4.486,8.2
		c-1.122,2.982-7.352,20.066-8.1,22.924c-0.499,1.926,0.249,2.858,1.309,2.858c1.433,0,3.115-1.429,4.548-4.411
		c0.187-0.435,0.747-0.125,0.561,0.248c-1.993,4.163-4.05,5.032-6.479,5.032c-3.613,0-6.168-2.361-6.417-5.591
		c-1.184,2.609-2.991,5.591-6.791,5.591c-10.279,0-5.545-20.936,6.729-20.936C522.555,50.832,523.802,51.825,524.3,53.13z
		 M523.865,54.124c-0.187-0.994-0.748-1.74-1.62-1.74c-1.62,0-4.175,1.305-6.853,8.698c-1.372,3.728-2.555,9.133,0.187,9.133
		c2.429,0,4.299-5.529,5.357-8.201L523.865,54.124z"/>
	<path fill="#FFFFFF" d="M570.216,60.212c0.188-0.435,0.811,0,0.623,0.373c-3.178,6.585-6.044,11.183-11.713,11.183
		c-15.201,0-10.342-20.936,2.804-20.936c7.976,0,4.859,11.307-5.233,11.307c-0.997,3.728-0.872,8.76,3.364,8.76
		C564.795,70.898,568.098,64.81,570.216,60.212z M556.946,61.455c8.535,0,10.778-9.07,6.979-9.07c-1.62,0-4.175,1.305-6.854,8.698
		C557.008,61.207,556.946,61.331,556.946,61.455z"/>
	<path fill="#FFFFFF" d="M584.981,51.266h0.187c2.243,0,4.05,1.677,4.05,4.535c0,2.795-2.18,5.033-5.482,7.642
		c-3.364,2.609-6.542,5.219-6.542,7.952c0,0.559,0,0.559-0.312,0.559c-0.996,0-6.541-1.18-6.541-6.709
		c0-3.231,2.741-7.083,3.738-9.878c0.872-2.485-0.748-3.355-2.804-2.174c-0.561,0.31-0.686-0.125-0.374-0.435
		c0.748-0.746,2.056-1.305,3.738-1.305c5.233,0,5.794,4.908,4.424,8.636c-1.121,3.168-3.552,6.833-3.552,8.822
		c0,1.056,0.437,1.801,0.997,2.236c0.187-3.168,3.551-5.592,6.729-8.139c3.364-2.609,5.295-4.721,5.295-7.393
		c0-1.491-0.561-2.609-1.682-3.23c0.188,0.311,0.312,0.684,0.312,1.057c0,1.18-0.996,2.112-2.181,2.112
		c-1.184,0-2.118-0.932-2.118-2.112C582.863,52.26,583.797,51.266,584.981,51.266z"/>
	<path fill="#FFFFFF" d="M612.268,60.212c0.188-0.435,0.812,0,0.623,0.373c-3.177,6.585-6.043,11.183-11.713,11.183
		c-15.2,0-10.341-20.936,2.805-20.936c7.975,0,4.859,11.307-5.233,11.307c-0.997,3.728-0.872,8.76,3.364,8.76
		C606.848,70.898,610.151,64.81,612.268,60.212z M598.999,61.455c8.535,0,10.778-9.07,6.979-9.07c-1.621,0-4.175,1.305-6.854,8.698
		C599.061,61.207,598.999,61.331,598.999,61.455z"/>
	<path fill="#FFFFFF" d="M627.408,58.97c-0.686-0.373-1.121-1.056-1.121-1.926c0-1.18,0.934-2.112,2.117-2.112
		c1.185,0,2.181,0.932,2.181,2.112c0,0.559-0.187,1.056-0.561,1.429c1.184-0.559,1.932-1.801,1.932-3.168
		c0-1.988-1.371-3.604-3.552-3.604c-2.056,0-4.05,1.367-5.669,5.218l-0.249,0.87c-1.121,2.982-2.866,7.641-3.801,10.437
		c-0.747,2.236,0.561,2.858,2.617,1.677c0.561-0.311,0.686,0.125,0.374,0.435c-0.748,0.746-2.306,1.305-3.987,1.305
		c-4.86,0-5.795-4.908-4.424-8.636c1.121-3.168,2.056-5.591,3.363-8.822c0.873-2.174-0.561-2.609-2.615-1.553
		c-0.561,0.311-0.623-0.186-0.312-0.497c0.747-0.622,2.865-1.367,4.548-1.367c3.178,0,4.672,1.677,4.797,3.976
		c1.121-2.175,3.115-3.666,5.233-3.666c2.679,0,4.424,1.678,4.424,4.163C632.704,58.783,629.214,60.088,627.408,58.97z"/>
	<path fill="#FFFFFF" d="M635.195,79.533c1.185,0,2.119,0.932,2.119,2.112s-0.935,2.112-2.119,2.112
		c-0.81,0-1.682-0.435-2.056-1.118c-0.187,1.429,1.121,3.728,3.925,3.665c2.99,0,4.175-2.982,5.171-5.901l4.486-13.046
		c-1.869,2.982-4.237,4.349-6.792,4.349c-4.485,0-6.354-3.79-4.672-7.952c1.185-2.982,2.492-5.591,3.489-8.387
		c0.871-2.485-0.748-3.355-2.805-2.174c-0.561,0.31-0.685-0.125-0.373-0.435c0.748-0.746,2.056-1.305,3.738-1.305
		c5.233,0,6.417,4.411,4.922,8.636c-1.122,3.168-2.99,6.399-3.053,8.138c-0.062,1.367,1.184,2.174,2.491,1.367
		c2.492-1.553,4.299-6.15,5.048-7.89l2.304-6.709c0.748-2.237-0.561-2.858-2.615-1.678c-0.562,0.311-0.687-0.124-0.375-0.435
		c0.748-0.746,2.306-1.305,3.987-1.305c4.611,0,5.545,4.349,4.486,8.2c-1.06,3.728-3.738,11.556-4.735,14.351
		c-3.738,10.686-8.847,12.984-13.893,12.984C631.021,87.113,631.145,79.533,635.195,79.533z"/>
	<path fill="#FFFFFF" d="M686.592,50.832c3.613,0,5.047,2.485,5.047,4.97c0,1.429-0.811,3.23-2.617,3.23
		c-1.184,0-2.118-0.932-2.118-2.112c0-1.18,0.935-2.112,2.118-2.112c0.81,0,1.558,0.497,1.931,1.18
		c0.188-1.429-0.498-3.604-2.366-3.604c-1.621,0-4.175,1.305-6.854,8.698c-1.37,3.728-1.744,9.878,2.43,9.878
		c4.984,0,8.598-6.15,10.716-10.748c0.187-0.435,0.811,0,0.623,0.373c-3.177,6.585-6.542,11.183-12.212,11.183
		C668.899,71.768,673.447,50.832,686.592,50.832z"/>
	<path fill="#FFFFFF" d="M699.676,54.994c0.747-2.237-0.561-2.858-2.617-1.678c-0.561,0.311-0.686-0.124-0.374-0.435
		c0.748-0.746,2.305-1.305,3.987-1.305c4.859,0,5.731,4.411,4.485,8.2c-0.996,2.92-1.993,5.157-2.679,7.58
		c-0.623,2.236,0.187,2.919,1.246,2.919c2.679,0,5.856-5.467,7.975-10.064c0.188-0.435,0.811,0,0.623,0.373
		c-3.178,6.585-5.607,11.183-11.152,11.183c-4.609,0-6.666-4.1-4.859-8.76C697.495,59.902,698.866,57.417,699.676,54.994z
		 M702.354,45.551c0-1.739,1.434-3.168,3.178-3.168c1.808,0,3.24,1.429,3.24,3.168c0,1.802-1.433,3.231-3.24,3.231
		C703.788,48.782,702.354,47.353,702.354,45.551z"/>
	<path fill="#FFFFFF" d="M728.957,60.212c0.187-0.435,0.81,0,0.623,0.373c-3.178,6.585-5.606,11.183-11.152,11.183
		c-4.922,0-8.099-3.355-5.918-9.443c0.81-2.299,2.555-6.585,3.925-10.002h-2.617c-0.685,0-0.498-0.746,0.312-0.746h2.68l0.935-2.361
		c0.871-2.174-0.562-2.858-2.616-1.678c-0.562,0.311-0.687-0.124-0.374-0.435c0.747-0.745,2.305-1.304,3.986-1.304
		c4.3,0,5.358,2.982,4.798,5.778h2.741c0.748,0,0.562,0.746-0.312,0.746h-2.616c0,0.124-0.062,0.248-0.062,0.31
		c-1.06,2.982-4.611,12.425-5.234,14.973c-0.561,2.236,0.873,3.044,1.933,3.044C723.786,70.711,726.839,64.81,728.957,60.212z"/>
	<path fill="#FFFFFF" d="M729.205,79.533c1.184,0,2.119,0.932,2.119,2.112s-0.936,2.112-2.119,2.112
		c-0.81,0-1.682-0.435-2.056-1.118c-0.187,1.429,1.121,3.728,3.925,3.665c2.99,0,4.175-2.982,5.171-5.901l4.486-13.046
		c-1.869,2.982-4.237,4.349-6.792,4.349c-4.485,0-6.354-3.79-4.672-7.952c1.185-2.982,2.492-5.591,3.489-8.387
		c0.871-2.485-0.748-3.355-2.805-2.174c-0.561,0.31-0.685-0.125-0.373-0.435c0.747-0.746,2.056-1.305,3.738-1.305
		c5.233,0,6.417,4.411,4.921,8.636c-1.121,3.168-2.989,6.399-3.052,8.138c-0.062,1.367,1.184,2.174,2.491,1.367
		c2.492-1.553,4.299-6.15,5.048-7.89l2.304-6.709c0.748-2.237-0.561-2.858-2.616-1.678c-0.561,0.311-0.686-0.124-0.374-0.435
		c0.748-0.746,2.306-1.305,3.987-1.305c4.611,0,5.545,4.349,4.486,8.2c-1.06,3.728-3.738,11.556-4.735,14.351
		c-3.738,10.686-8.847,12.984-13.893,12.984C725.031,87.113,725.155,79.533,729.205,79.533z"/>
</g>
</svg>
