<?xml version="1.0" encoding="utf-8"?>
<!-- Generator: Adobe Illustrator 16.0.0, SVG Export Plug-In . SVG Version: 6.00 Build 0)  -->
<!DOCTYPE svg PUBLIC "-//W3C//DTD SVG 1.0//EN" "http://www.w3.org/TR/2001/REC-SVG-20010904/DTD/svg10.dtd">
<svg version="1.0" id="Layer_1" xmlns="http://www.w3.org/2000/svg" xmlns:xlink="http://www.w3.org/1999/xlink" x="0px" y="0px"
	 width="525.536px" height="88.742px" viewBox="0 0 525.536 88.742" enable-background="new 0 0 525.536 88.742"
	 xml:space="preserve">
<g>
	<g>
		<g>
			<path fill="#FFFFFF" d="M16.463,15.445c1.522,0,2.739,1.218,2.739,2.739c0,1.218-0.761,2.13-1.75,2.511
				c-3.044,1.521-8.369-0.305-8.37-6.163c0-7.456,9.282-13.314,19.173-13.314c15.217,0,21.456,9.891,19.174,20.01
				c-2.207,9.967-9.054,26.173-9.89,29.14c-0.761,2.739,0.228,3.576,1.521,3.576c3.271,0,7.152-6.695,9.738-12.326
				c0.229-0.532,0.989,0,0.761,0.457c-3.88,8.065-7.379,13.696-13.162,13.696c-5.858,0-8.141-4.414-6.163-10.196
				c0.684-2.055,3.576-9.587,6.086-16.663H27.8c-2.358,6.467-4.945,13.163-5.629,14.989c-3.728,9.282-8.75,12.098-15.521,12.098
				c-8.217,0-8.217-9.283-3.271-9.283c1.445,0,2.586,1.141,2.586,2.587S4.823,51.89,3.377,51.89c-0.989,0-2.055-0.533-2.511-1.37
				c-0.228,1.75,1.37,4.489,4.87,4.489c3.956,0,5.478-4.489,6.771-8.064C19.202,27.999,24.3,14.075,25.669,10.043
				c0.914-2.739-0.685-3.5-3.195-2.054c-0.685,0.38-0.837-0.152-0.457-0.533c0.913-0.913,2.815-1.598,4.87-1.598
				c5.935,0,6.771,5.326,5.478,10.043c-0.532,1.978-2.207,6.695-4.108,11.717h8.597c1.293-3.652,2.435-7.076,3.119-9.358
				C42.56,8.978,38.299,2.13,28.104,2.13c-9.206,0-18.032,5.25-18.032,12.478c0,3.576,2.283,5.782,4.87,5.858
				c-0.685-0.457-1.141-1.293-1.141-2.283C13.8,16.663,14.941,15.445,16.463,15.445z"/>
			<path fill="#FFFFFF" d="M73.602,46.64c1.445,0,2.586,1.142,2.586,2.587s-1.141,2.587-2.586,2.587
				c-0.989,0-2.055-0.533-2.511-1.37c-0.229,1.75,1.37,4.413,4.869,4.413c3.652,0,5.478-4.337,6.771-7.913
				C89.427,27.999,94.98,12.934,96.35,8.902c0.913-2.739-0.685-3.5-3.195-2.054c-0.685,0.38-0.837-0.152-0.457-0.533
				c0.913-0.913,2.815-1.598,4.869-1.598c5.935,0,6.772,5.326,5.479,10.043c-0.533,1.674-1.979,5.859-3.728,10.576
				c1.293,0.457,2.511,0.837,3.804,0.837c2.359,0,2.739-1.294,3.5-1.142c0.609,0.152-0.609,2.131-3.424,2.131
				c-1.522,0-2.891-0.381-4.185-0.914c-2.891,7.836-6.391,16.967-7.151,19.021c-3.196,8.37-8.141,10.652-14.913,10.652
				C68.504,55.922,68.656,46.64,73.602,46.64z M84.709,15.445c1.521,0,2.739,1.218,2.739,2.739c0,1.065-0.609,1.978-1.522,2.435
				c-3.576,2.282-9.891-0.076-9.891-6.924c0-6.771,6.238-12.402,16.662-12.402c11.945,0,18.641,9.891,27.314,9.891
				c4.261,0,6.543-3.043,6.543-6.087c0-2.663-1.75-4.413-3.957-4.413c-1.217,0-2.207,0.305-3.043,0.913
				c0.152-0.076,0.38-0.076,0.533-0.076c1.445,0,2.663,1.217,2.663,2.663s-1.217,2.587-2.663,2.587
				c-1.445,0-2.511-1.065-2.586-2.435V4.185V3.88c0.152-2.359,2.586-3.88,5.097-3.88c2.435,0,4.717,1.979,4.718,5.098
				c0,3.196-2.131,6.848-7.229,6.848c-9.51,0-15.445-9.891-27.542-9.891c-9.663,0-15.673,5.326-15.673,11.488
				c0,5.021,3.5,7.228,6.619,7.076c-0.837-0.457-1.446-1.37-1.446-2.435C82.046,16.663,83.188,15.445,84.709,15.445z M92.166,23.358
				c0.076-0.076,0-0.076-0.152,0H92.166z"/>
			<path fill="#FFFFFF" d="M128.686,41.618c0.229-0.532,0.989,0,0.761,0.457c-3.88,8.065-6.847,13.696-13.619,13.696
				c-5.326,0-8.065-4.946-6.087-10.729c1.37-3.88,9.054-23.738,10.651-27.695c1.065-2.663-0.685-3.5-3.196-2.054
				c-0.684,0.38-0.836-0.152-0.456-0.533c0.913-0.913,2.815-1.598,4.87-1.598c5.935,0,7.151,5.478,5.478,10.043
				c-1.37,3.652-8.673,23.662-9.662,27.162c-0.761,2.739,0.228,3.576,1.521,3.576C122.219,53.944,126.099,47.249,128.686,41.618z"/>
			<path fill="#FFFFFF" d="M150.901,53.944c3.271,0,7.151-6.695,9.738-12.326c0.229-0.532,0.989,0,0.761,0.457
				c-3.88,8.065-6.847,13.696-13.619,13.696c-4.033,0-6.62-2.815-6.772-6.62c-1.369,3.195-3.576,6.62-8.14,6.62
				c-13.848,0-7.077-25.641,8.216-25.641c3.652,0,5.021,1.674,5.402,3.728c1.217-1.674,3.271-2.891,5.326-2.891
				c3.5,0,5.174,2.13,5.707,3.804c0.076,0.304-0.38,0.685-0.685,0.304c-0.837-0.989-1.978-0.685-2.967,1.902
				c-0.533,1.445-3.5,9.891-4.489,13.391C148.618,53.107,149.607,53.944,150.901,53.944z M145.727,35.151
				c0-0.077,0-0.077,0.076-0.152c0-1.674-0.761-2.967-2.055-2.967c-1.978,0-5.098,1.598-8.369,10.652
				c-1.674,4.565-3.119,11.185,0.229,11.185c2.967,0,5.25-6.772,6.542-10.043C143.292,40.705,144.129,38.575,145.727,35.151z"/>
			<path fill="#FFFFFF" d="M175.628,30.662h0.228c2.739,0,4.945,2.054,4.945,5.554c0,3.424-2.663,6.163-6.694,9.359
				c-4.109,3.195-7.989,6.391-7.989,9.739c0,0.685,0,0.685-0.38,0.685c-1.217,0-7.989-1.446-7.989-8.217
				c0-3.957,3.347-8.674,4.565-12.098c1.064-3.043-0.914-4.108-3.424-2.663c-0.685,0.38-0.837-0.152-0.456-0.533
				c0.913-0.913,2.511-1.597,4.564-1.597c6.392,0,7.076,6.01,5.402,10.576c-1.369,3.88-4.336,8.369-4.336,10.804
				c0,1.292,0.533,2.206,1.217,2.738c0.228-3.88,4.337-6.847,8.217-9.967c4.108-3.196,6.467-5.783,6.467-9.054
				c0-1.826-0.685-3.195-2.055-3.956c0.229,0.38,0.38,0.837,0.38,1.293c0,1.445-1.217,2.587-2.663,2.587s-2.587-1.142-2.587-2.587
				S174.182,30.662,175.628,30.662z"/>
			<path fill="#FFFFFF" d="M196.246,30.129c9.054,0,11.793,7.304,10.043,14.076c3.88-0.914,6.695-3.424,8.749-6.391
				c0.305-0.457,0.989-0.076,0.685,0.38c-1.826,2.892-4.869,6.011-9.739,7c-1.826,5.554-6.771,10.576-13.771,10.576
				C174.943,55.771,178.138,30.129,196.246,30.129z M197.616,43.901c-3.5-2.359-4.489-7-3.652-9.967
				c-1.218,1.75-2.587,4.565-4.109,8.75c-1.674,4.565-3.423,11.945-0.076,11.945C191.986,54.629,194.42,52.422,197.616,43.901z
				 M197.844,43.14c1.598-4.489,2.967-11.564,0-11.945h-0.229C193.887,31.195,193.05,39.64,197.844,43.14z"/>
			<path fill="#FFFFFF" d="M228.201,40.097c-0.836-0.457-1.37-1.294-1.37-2.358c0-1.446,1.141-2.587,2.587-2.587
				s2.664,1.141,2.664,2.587c0,0.684-0.229,1.293-0.685,1.75c1.445-0.685,2.358-2.207,2.358-3.88c0-2.435-1.673-4.413-4.337-4.413
				c-2.511,0-4.945,1.674-6.924,6.391l-0.304,1.065c-1.369,3.652-3.5,9.358-4.641,12.782c-0.913,2.739,0.685,3.5,3.195,2.055
				c0.685-0.38,0.837,0.153,0.457,0.533c-0.913,0.913-2.815,1.598-4.869,1.598c-5.935,0-7.076-6.011-5.402-10.576
				c1.369-3.88,2.511-6.848,4.108-10.804c1.065-2.663-0.685-3.196-3.195-1.902c-0.685,0.38-0.761-0.229-0.38-0.609
				c0.913-0.761,3.5-1.674,5.554-1.674c3.88,0,5.706,2.054,5.858,4.87c1.37-2.663,3.804-4.489,6.392-4.489
				c3.271,0,5.402,2.054,5.402,5.097C234.668,39.869,230.407,41.466,228.201,40.097z"/>
			<path fill="#FFFFFF" d="M264.568,46.944c6.695-18.945,12.249-34.01,13.618-38.042c0.913-2.739-0.685-3.5-3.195-2.054
				c-0.686,0.38-0.837-0.152-0.456-0.533c0.913-0.913,2.815-1.598,4.868-1.598c5.936,0,6.772,5.326,5.479,10.043
				c-1.293,4.565-9.89,27.086-11.184,30.51c-3.195,8.37-8.14,10.652-14.911,10.652c-8.294,0-8.218-9.283-3.273-9.283
				c1.446,0,2.588,1.142,2.588,2.587s-1.142,2.587-2.588,2.587c-0.987,0-2.054-0.533-2.509-1.37c-0.229,1.75,1.37,4.489,4.869,4.489
				C261.449,54.857,263.274,50.52,264.568,46.944z M268.828,15.445c1.522,0,2.739,1.218,2.739,2.739c0,1.218-0.761,2.13-1.75,2.511
				c-3.043,1.521-8.369-0.305-8.369-6.163c0-7.456,9.282-13.314,19.173-13.314c15.218,0,20.696,8.141,19.25,15.369
				c-1.369,6.62-7.761,9.663-12.782,9.663c4.489,0.152,7.988,3.119,7.761,7.228c-0.228,4.945-4.413,13.923-5.25,16.891
				c-0.761,2.739,0.381,3.576,1.522,3.576c3.271,0,7.151-6.695,9.739-12.326c0.228-0.532,0.988,0,0.761,0.457
				c-3.881,8.065-7.381,13.696-13.163,13.696c-5.858,0-8.293-4.794-6.315-10.576c1.065-3.272,4.946-11.261,4.946-13.923
				c0-1.065,0.15-3.348-3.577-4.489c-0.837-0.228-0.989-0.761,0-0.837c4.718-0.457,7.761-4.869,8.825-9.054
				c2.131-8.521-0.912-14.76-11.868-14.76c-9.207,0-18.032,5.25-18.032,12.478c0.001,3.576,2.283,5.782,4.869,5.858
				c-0.685-0.457-1.141-1.293-1.141-2.283C266.166,16.663,267.307,15.445,268.828,15.445z"/>
			<path fill="#FFFFFF" d="M322.619,41.618c0.229-0.532,0.99,0,0.761,0.457c-3.88,8.065-7.379,13.696-14.303,13.696
				c-18.564,0-12.631-25.641,3.423-25.641c9.739,0,5.936,13.847-6.391,13.847c-1.217,4.565-1.065,10.728,4.108,10.728
				C316.001,54.705,320.033,47.249,322.619,41.618z M306.414,43.14c10.423,0,13.162-11.108,8.521-11.108
				c-1.979,0-5.099,1.598-8.37,10.652C306.489,42.835,306.414,42.988,306.414,43.14z"/>
			<path fill="#FFFFFF" d="M337.607,30.662h0.229c2.739,0,4.945,2.054,4.945,5.554c0,3.424-2.662,6.163-6.695,9.359
				c-4.107,3.195-7.988,6.391-7.988,9.739c0,0.685,0,0.685-0.381,0.685c-1.217,0-7.988-1.446-7.988-8.217
				c0-3.957,3.347-8.674,4.564-12.098c1.064-3.043-0.913-4.108-3.424-2.663c-0.685,0.38-0.837-0.152-0.456-0.533
				c0.913-0.913,2.511-1.597,4.564-1.597c6.391,0,7.075,6.01,5.402,10.576c-1.369,3.88-4.336,8.369-4.336,10.804
				c0,1.292,0.531,2.206,1.217,2.738c0.228-3.88,4.337-6.847,8.218-9.967c4.107-3.196,6.466-5.783,6.466-9.054
				c0-1.826-0.685-3.195-2.055-3.956c0.229,0.38,0.381,0.837,0.381,1.293c0,1.445-1.217,2.587-2.663,2.587
				c-1.445,0-2.586-1.142-2.586-2.587S336.162,30.662,337.607,30.662z"/>
			<path fill="#FFFFFF" d="M358.226,30.129c9.055,0,11.794,7.304,10.043,14.076c3.881-0.914,6.696-3.424,8.75-6.391
				c0.305-0.457,0.989-0.076,0.685,0.38c-1.825,2.892-4.868,6.011-9.738,7c-1.825,5.554-6.771,10.576-13.771,10.576
				C336.923,55.771,340.118,30.129,358.226,30.129z M359.595,43.901c-3.499-2.359-4.488-7-3.651-9.967
				c-1.217,1.75-2.587,4.565-4.108,8.75c-1.674,4.565-3.424,11.945-0.076,11.945C353.966,54.629,356.399,52.422,359.595,43.901z
				 M359.824,43.14c1.598-4.489,2.967-11.564-0.001-11.945h-0.229C355.867,31.195,355.03,39.64,359.824,43.14z"/>
			<path fill="#FFFFFF" d="M391.627,41.618c0.228-0.532,0.988,0,0.761,0.457c-3.881,8.065-6.849,13.696-13.619,13.696
				c-5.326,0-8.065-4.946-6.087-10.729c1.369-3.88,9.053-23.738,10.651-27.695c1.064-2.663-0.685-3.5-3.196-2.054
				c-0.685,0.38-0.837-0.152-0.456-0.533c0.913-0.913,2.814-1.598,4.869-1.598c5.935,0,7.152,5.478,5.479,10.043
				c-1.37,3.652-8.674,23.662-9.663,27.162c-0.761,2.739,0.229,3.576,1.522,3.576C385.159,53.944,389.039,47.249,391.627,41.618z"/>
			<path fill="#FFFFFF" d="M405.7,44.586c1.445-3.576,2.968-6.544,3.957-9.359c0.913-2.739-0.685-3.5-3.196-2.054
				c-0.685,0.38-0.837-0.152-0.456-0.532c0.913-0.914,2.814-1.598,4.869-1.598c5.935,0,7,5.402,5.479,10.043
				c-1.218,3.575-2.435,6.314-3.271,9.282c-0.761,2.739,0.229,3.576,1.521,3.576c3.271,0,7.152-6.695,9.739-12.326
				c0.228-0.532,0.988,0,0.761,0.457c-3.881,8.065-6.848,13.696-13.619,13.696c-4.412,0-6.924-3.044-6.771-7.077
				c-2.358,4.793-5.707,7-9.206,7c-5.479,0-7.761-4.641-5.706-9.738c1.445-3.652,3.043-6.848,4.261-10.271
				c1.064-3.043-0.914-4.108-3.425-2.663c-0.685,0.38-0.836-0.152-0.456-0.533c0.912-0.913,2.51-1.597,4.564-1.597
				c6.392,0,7.837,5.402,6.012,10.576c-1.37,3.88-3.652,7.836-3.729,9.966c-0.076,1.674,1.445,2.663,3.043,1.674
				C402.658,51.509,404.636,47.173,405.7,44.586z"/>
			<path fill="#FFFFFF" d="M442.373,41.618c0.228-0.532,0.988,0,0.761,0.457c-3.88,8.065-6.848,13.696-13.619,13.696
				c-6.011,0-9.891-4.109-7.229-11.565c0.989-2.815,3.119-8.064,4.794-12.25h-3.195c-0.838,0-0.609-0.913,0.38-0.913h3.271
				l1.142-2.891c1.064-2.663-0.686-3.5-3.196-2.055c-0.685,0.381-0.837-0.152-0.456-0.532c0.913-0.914,2.815-1.598,4.869-1.598
				c5.25,0,6.544,3.652,5.858,7.076h3.348c0.913,0,0.685,0.913-0.38,0.913h-3.196c0,0.152-0.076,0.305-0.076,0.381
				c-1.293,3.652-5.629,15.217-6.39,18.336c-0.686,2.739,1.064,3.729,2.358,3.729C436.059,54.477,439.786,47.249,442.373,41.618z"/>
			<path fill="#FFFFFF" d="M444.273,35.227c0.913-2.739-0.685-3.5-3.195-2.054c-0.685,0.38-0.837-0.152-0.457-0.532
				c0.913-0.914,2.815-1.598,4.87-1.598c5.935,0,6.999,5.402,5.479,10.043c-1.218,3.575-2.436,6.314-3.272,9.282
				c-0.76,2.739,0.229,3.576,1.522,3.576c3.271,0,7.151-6.695,9.738-12.326c0.229-0.532,0.989,0,0.761,0.457
				c-3.88,8.065-6.848,13.696-13.619,13.696c-5.629,0-8.141-5.022-5.935-10.729C441.611,41.238,443.284,38.194,444.273,35.227z
				 M447.546,23.662c0-2.13,1.749-3.88,3.88-3.88c2.206,0,3.956,1.75,3.956,3.88c0,2.207-1.75,3.957-3.956,3.957
				C449.295,27.619,447.546,25.869,447.546,23.662z"/>
			<path fill="#FFFFFF" d="M471.055,30.129c9.054,0,11.793,7.304,10.043,14.076c3.88-0.914,6.695-3.424,8.749-6.391
				c0.305-0.457,0.989-0.076,0.685,0.38c-1.825,2.892-4.868,6.011-9.738,7c-1.825,5.554-6.771,10.576-13.771,10.576
				C449.751,55.771,452.946,30.129,471.055,30.129z M472.424,43.901c-3.5-2.359-4.489-7-3.652-9.967
				c-1.217,1.75-2.587,4.565-4.108,8.75c-1.674,4.565-3.423,11.945-0.076,11.945C466.794,54.629,469.228,52.422,472.424,43.901z
				 M472.652,43.14c1.598-4.489,2.967-11.564,0-11.945h-0.229C468.695,31.195,467.858,39.64,472.652,43.14z"/>
			<path fill="#FFFFFF" d="M504.15,34.01c0-1.066-0.533-1.979-1.598-1.979c-1.674,0-3.957,2.967-5.707,6.923
				c-1.368,3.652-3.423,9.13-4.487,12.478c-0.914,2.739,0.684,3.5,3.195,2.055c0.685-0.38,0.836,0.153,0.455,0.533
				c-0.912,0.913-2.814,1.598-4.868,1.598c-5.935,0-7.076-6.011-5.403-10.576c1.37-3.88,2.511-6.848,4.109-10.804
				c1.064-2.663-0.686-3.196-3.196-1.902c-0.685,0.38-0.761-0.229-0.38-0.609c0.913-0.761,3.499-1.674,5.554-1.674
				c4.261,0,6.087,2.511,5.782,5.782c1.598-2.663,3.729-5.706,8.065-5.706c4.642,0,6.011,3.652,6.011,6.163
				c0,3.576-3.5,11.108-4.337,14.075c-0.761,2.739,0.229,3.576,1.522,3.576c3.271,0,7.15-6.695,9.738-12.326
				c0.228-0.532,0.988,0,0.761,0.457c-3.88,8.065-7.38,13.696-13.163,13.696c-5.858,0-8.293-4.794-6.314-10.576
				C500.955,41.922,504.15,37.053,504.15,34.01z"/>
			<path fill="#FFFFFF" d="M37.041,88.742c-2.853,0-4.714-1.111-7.115-1.531c-0.03-1.621-0.03-4.623-0.121-6.064
				c0-0.12,0.45-0.24,0.691-0.24c0.24,0,0.57,0.06,0.63,0.24c0.781,3.603,3.603,6.154,5.915,6.154c2.432,0,3.272-1.141,3.272-2.852
				c0-4.383-9.877-5.044-9.877-10.928c0-3.723,2.972-6.604,7.925-6.604c2.402,0,2.972,0.6,5.434,1.081
				c0.06,1.741,0.09,3.723,0.3,5.375c0,0.119-0.451,0.239-0.66,0.239c-0.241,0-0.631-0.06-0.691-0.239
				c-0.75-3.093-2.282-5.014-4.413-5.014c-1.861,0-3.032,1.141-3.032,2.641c0,4.143,9.817,4.864,9.817,10.929
				C45.116,86.22,41.724,88.742,37.041,88.742z"/>
			<path fill="#FFFFFF" d="M68.01,74.812c-0.181,0-0.541-0.059-0.571-0.15c-0.57-2.251-3.092-5.644-4.954-5.644h-0.451
				c-0.96,0-1.291,0.391-1.291,1.171v14.231c0,1.621,0.601,2.282,2.883,2.521c0.12,0.03,0.24,0.451,0.24,0.661
				c0,0.24-0.12,0.66-0.24,0.66c-1.982,0-3.993-0.15-5.825-0.15c-1.861,0-3.873,0.15-5.854,0.15c-0.12,0-0.24-0.42-0.24-0.66
				c0-0.21,0.12-0.631,0.24-0.661c2.281-0.239,2.882-0.9,2.882-2.521l0-14.231c0-0.9-0.33-1.171-1.291-1.171h-0.24
				c-1.682,0-4.623,3.092-5.584,5.644c-0.03,0.12-0.36,0.15-0.541,0.15c-0.331,0-0.811-0.18-0.781-0.39
				c0.45-2.192,0.901-5.194,1.141-7.295c1.201,0.239,4.773,0.419,10.267,0.419c5.464,0,9.217-0.18,10.388-0.419
				c0.12,1.921,0.36,5.133,0.571,7.295C68.791,74.631,68.4,74.812,68.01,74.812z"/>
			<path fill="#FFFFFF" d="M90.85,88.262c-1.981,0-3.933-0.15-5.614-0.15c-1.861,0-4.023,0.15-6.004,0.15
				c-0.15,0-0.241-0.42-0.241-0.66c0-0.21,0.03-0.631,0.18-0.661c1.951-0.09,2.372-0.51,2.372-1.261c0-0.36-0.15-0.78-0.331-1.26
				l-0.811-2.102h-6.304l-0.72,1.742c-0.21,0.51-0.39,1.021-0.39,1.441c0,0.811,0.33,1.351,2.251,1.44
				c0.12,0.03,0.15,0.451,0.15,0.661c0,0.24-0.09,0.66-0.24,0.66c-1.741,0-2.312-0.15-3.933-0.15c-1.351,0-2.101,0.15-3.512,0.15
				c-0.12,0-0.21-0.42-0.21-0.66c0.03-0.21,0.21-0.631,0.36-0.661c1.741-0.15,2.492-0.96,3.482-3.001l7.445-16.782
				c0.06-0.12,0.48-0.24,0.901-0.24c0.39,0,0.84,0.12,0.9,0.24l6.665,16.782c0.781,2.071,1.501,2.791,3.543,3.001
				c0.12,0.03,0.3,0.451,0.3,0.661C91.089,87.842,90.969,88.262,90.85,88.262z M77.309,74.272l-2.642,6.604h5.164L77.309,74.272z"/>
			<path fill="#FFFFFF" d="M116.384,88.262c-1.051,0-3.452-0.15-4.113-0.15c-0.871,0-2.882,0.15-3.783,0.15l-3.783-7.685
				c-0.571-1.201-1.381-1.591-2.792-1.591l0,5.434c0,1.621,0.36,2.282,2.642,2.521c0.12,0.03,0.24,0.451,0.24,0.661
				c0,0.24-0.12,0.66-0.24,0.66c-1.981,0-3.752-0.15-5.614-0.15s-3.843,0.15-5.824,0.15c-0.15,0-0.24-0.42-0.24-0.66
				c0-0.21,0.09-0.631,0.24-0.661c2.251-0.239,2.852-0.9,2.852-2.521v-13.18c0-1.622-0.6-2.282-2.852-2.522
				c-0.15-0.03-0.241-0.45-0.241-0.66c0-0.24,0.09-0.661,0.241-0.661c1.981,0,4.083,0.15,5.944,0.15c1.861,0,3.033-0.15,5.014-0.15
				c6.485,0,9.187,2.492,9.187,5.374c0,2.762-1.201,4.264-4.144,5.194l4.113,6.875c0.901,1.471,1.531,1.891,3.333,2.101
				c0.12,0.03,0.18,0.451,0.15,0.661C116.685,87.842,116.504,88.262,116.384,88.262z M103.655,68.868
				c-1.411,0-1.741,0.511-1.741,1.892v6.785c0.3,0.06,0.781,0.09,1.171,0.09c2.762,0.03,3.993-1.231,3.993-4.323
				C107.077,70.249,105.937,68.868,103.655,68.868z"/>
			<path fill="#FFFFFF" d="M137.413,74.812c-0.18,0-0.541-0.059-0.57-0.15c-0.57-2.251-3.092-5.644-4.954-5.644h-0.45
				c-0.961,0-1.291,0.391-1.291,1.171l0,14.231c0,1.621,0.6,2.282,2.882,2.521c0.12,0.03,0.24,0.451,0.24,0.661
				c0,0.24-0.12,0.66-0.24,0.66c-1.981,0-3.993-0.15-5.824-0.15c-1.861,0-3.873,0.15-5.854,0.15c-0.12,0-0.24-0.42-0.24-0.66
				c0-0.21,0.12-0.631,0.24-0.661c2.282-0.239,2.882-0.9,2.882-2.521V70.188c0-0.9-0.331-1.171-1.291-1.171h-0.241
				c-1.681,0-4.623,3.092-5.584,5.644c-0.029,0.12-0.36,0.15-0.54,0.15c-0.331,0-0.811-0.18-0.781-0.39
				c0.45-2.192,0.9-5.194,1.14-7.295c1.201,0.239,4.774,0.419,10.268,0.419c5.464,0,9.216-0.18,10.387-0.419
				c0.12,1.921,0.36,5.133,0.57,7.295C138.193,74.631,137.803,74.812,137.413,74.812z"/>
			<path fill="#FFFFFF" d="M147.259,88.742c-2.852,0-4.713-1.111-7.115-1.531c-0.03-1.621-0.03-4.623-0.12-6.064
				c0-0.12,0.45-0.24,0.69-0.24c0.24,0,0.57,0.06,0.63,0.24c0.781,3.603,3.603,6.154,5.915,6.154c2.432,0,3.272-1.141,3.272-2.852
				c0-4.383-9.877-5.044-9.877-10.928c0-3.723,2.972-6.604,7.925-6.604c2.402,0,2.973,0.6,5.434,1.081
				c0.06,1.741,0.09,3.723,0.3,5.375c0,0.119-0.45,0.239-0.661,0.239c-0.24,0-0.63-0.06-0.69-0.239
				c-0.751-3.093-2.282-5.014-4.414-5.014c-1.861,0-3.032,1.141-3.032,2.641c0,4.143,9.817,4.864,9.817,10.929
				C155.334,86.22,151.942,88.742,147.259,88.742z"/>
			<path fill="#FFFFFF" d="M176.858,88.262c-1.981,0-3.963-0.15-5.824-0.15s-3.873,0.15-5.854,0.15c-0.12,0-0.24-0.42-0.24-0.66
				c0-0.21,0.12-0.631,0.24-0.661c2.282-0.239,2.882-0.9,2.882-2.521v-13.18c0-1.622-0.601-2.282-2.882-2.522
				c-0.12-0.03-0.24-0.45-0.24-0.66c0-0.24,0.12-0.661,0.24-0.661c1.982,0,3.993,0.15,5.854,0.15s3.843-0.15,5.824-0.15
				c0.15,0,0.24,0.42,0.24,0.661c0,0.21-0.09,0.63-0.24,0.66c-2.252,0.24-2.853,0.9-2.853,2.522l0,13.18
				c0,1.621,0.601,2.282,2.852,2.521c0.15,0.03,0.24,0.451,0.24,0.661C177.099,87.842,177.008,88.262,176.858,88.262z"/>
			<path fill="#FFFFFF" d="M204.486,68.717c-2.281,0.271-3.032,0.9-3.062,2.522l-0.33,17.143c0,0.12-0.271,0.3-0.841,0.3
				c-0.51,0-0.781-0.06-0.931-0.24l-14.591-14.741l-0.18,10.718c-0.06,1.621,0.811,2.282,3.062,2.521
				c0.15,0.03,0.24,0.421,0.24,0.661s-0.12,0.66-0.24,0.66c-1.531,0-2.702-0.15-4.113-0.15c-1.471,0-2.551,0.15-3.933,0.15
				c-0.12,0-0.24-0.39-0.24-0.66c0-0.24,0.12-0.631,0.271-0.661c2.281-0.239,3.002-0.9,3.032-2.521l0.479-12.219
				c0.06-2.102-0.78-3.213-3.272-3.483c-0.12-0.03-0.21-0.45-0.21-0.66c0-0.24,0.09-0.661,0.24-0.661c1.021,0,2.461,0.15,3.333,0.15
				c1.141,0,1.801-0.15,3.392-0.15l13.03,13.57l0-9.727c0-1.622-0.931-2.251-3.183-2.522c-0.15-0.03-0.24-0.419-0.24-0.66
				c0-0.24,0.12-0.661,0.24-0.661c1.562,0,2.462,0.18,3.873,0.18c1.471,0,2.792-0.18,4.173-0.18c0.15,0,0.24,0.391,0.24,0.661
				C204.726,68.298,204.606,68.688,204.486,68.717z"/>
			<path fill="#FFFFFF" d="M220.876,88.742c-2.852,0-4.713-1.111-7.115-1.531c-0.03-1.621-0.03-4.623-0.121-6.064
				c0-0.12,0.45-0.24,0.69-0.24s0.571,0.06,0.631,0.24c0.78,3.603,3.603,6.154,5.914,6.154c2.432,0,3.272-1.141,3.272-2.852
				c0-4.383-9.877-5.044-9.877-10.928c0-3.723,2.971-6.604,7.925-6.604c2.402,0,2.972,0.6,5.434,1.081
				c0.06,1.741,0.091,3.723,0.3,5.375c0,0.119-0.45,0.239-0.66,0.239c-0.24,0-0.63-0.06-0.691-0.239
				c-0.75-3.093-2.281-5.014-4.413-5.014c-1.861,0-3.032,1.141-3.032,2.641c0,4.143,9.818,4.864,9.818,10.929
				C228.952,86.22,225.56,88.742,220.876,88.742z"/>
			<path fill="#FFFFFF" d="M260.376,88.262c-1.982,0-4.055-0.15-5.915-0.15c-1.862,0-3.783,0.15-5.765,0.15
				c-0.149,0-0.27-0.42-0.27-0.66c0-0.21,0.09-0.631,0.24-0.661c2.162-0.239,2.852-0.9,2.761-2.521l-0.54-12.97l-6.574,17.052
				c-0.03,0.09-0.48,0.24-0.9,0.24c-0.51,0-0.841-0.15-0.901-0.24l-6.635-16.393l-0.75,12.31c-0.09,1.711,0.63,2.282,2.882,2.521
				c0.12,0.03,0.18,0.451,0.18,0.661c0,0.24-0.12,0.66-0.27,0.66c-1.531,0-2.672-0.15-4.083-0.15c-1.471,0-2.552,0.15-3.963,0.15
				c-0.12,0-0.21-0.42-0.21-0.66s0.15-0.631,0.3-0.661c2.371-0.27,3.062-0.87,3.242-2.521l1.23-13.18
				c0.15-1.59-0.72-2.282-2.912-2.522c-0.12-0.03-0.21-0.45-0.21-0.66c0-0.24,0.15-0.661,0.3-0.661c1.021,0,3.062,0.15,3.933,0.15
				c1.021,0,3.393-0.15,4.594-0.15l5.464,13.57l5.254-13.57c1.531,0,3.302,0.15,4.354,0.15c1.26,0,2.94-0.15,4.263-0.15
				c0.12,0,0.24,0.42,0.24,0.661c0,0.21-0.09,0.63-0.21,0.66c-2.162,0.24-2.853,0.9-2.763,2.522l0.631,13.18
				c0.09,1.621,0.571,2.251,2.973,2.521c0.119,0.03,0.24,0.421,0.24,0.661S260.496,88.262,260.376,88.262z"/>
			<path fill="#FFFFFF" d="M285.52,88.262c-1.982,0-3.934-0.15-5.614-0.15c-1.861,0-4.022,0.15-6.005,0.15
				c-0.15,0-0.239-0.42-0.239-0.66c0-0.21,0.03-0.631,0.18-0.661c1.951-0.09,2.371-0.51,2.371-1.261c0-0.36-0.149-0.78-0.329-1.26
				l-0.812-2.102h-6.305l-0.72,1.742c-0.211,0.51-0.391,1.021-0.391,1.441c0,0.811,0.33,1.351,2.252,1.44
				c0.119,0.03,0.15,0.451,0.15,0.661c0,0.24-0.091,0.66-0.24,0.66c-1.742,0-2.312-0.15-3.934-0.15c-1.351,0-2.101,0.15-3.512,0.15
				c-0.12,0-0.211-0.42-0.211-0.66c0.03-0.21,0.211-0.631,0.36-0.661c1.741-0.15,2.492-0.96,3.482-3.001l7.445-16.782
				c0.06-0.12,0.48-0.24,0.9-0.24c0.391,0,0.841,0.12,0.901,0.24l6.665,16.782c0.78,2.071,1.501,2.791,3.542,3.001
				c0.12,0.03,0.301,0.451,0.301,0.661C285.76,87.842,285.64,88.262,285.52,88.262z M271.979,74.272l-2.642,6.604h5.163
				L271.979,74.272z"/>
			<path fill="#FFFFFF" d="M306.636,88.262c-1.922-0.06-7.297-0.15-9.308-0.15c-1.981,0-7.596,0.091-9.486,0.15
				c-0.15,0-0.24-0.42-0.24-0.66c0-0.21,0.09-0.631,0.24-0.661c2.251-0.239,2.853-0.9,2.853-2.521l-0.001-13.18
				c0-1.622-0.601-2.282-2.852-2.522c-0.15-0.03-0.24-0.45-0.24-0.66c0-0.24,0.09-0.661,0.24-0.661c1.98,0,3.992,0.15,5.824,0.15
				c1.86,0,3.872-0.15,5.854-0.15c0.12,0,0.24,0.42,0.24,0.661c0,0.21-0.12,0.63-0.24,0.66c-2.281,0.24-2.882,0.9-2.882,2.522v13.63
				c0,1.471,0.991,1.772,1.771,1.772h1.711c2.942,0,5.194-3.213,5.824-6.425c0-0.09,0.181-0.12,0.421-0.12
				c0.479,0,0.96,0.181,0.931,0.421C307.056,82.438,306.725,86.4,306.636,88.262z"/>
			<path fill="#FFFFFF" d="M328.111,88.262c-1.921-0.06-7.295-0.15-9.307-0.15c-1.981,0-7.596,0.091-9.487,0.15
				c-0.149,0-0.239-0.42-0.239-0.66c0-0.21,0.09-0.631,0.239-0.661c2.252-0.239,2.853-0.9,2.853-2.521v-13.18
				c0-1.622-0.602-2.282-2.853-2.522c-0.15-0.03-0.24-0.45-0.24-0.66c0-0.24,0.09-0.661,0.24-0.661c1.981,0,3.993,0.15,5.824,0.15
				c1.861,0,3.873-0.15,5.854-0.15c0.119,0,0.239,0.42,0.239,0.661c0,0.21-0.12,0.63-0.239,0.66c-2.281,0.24-2.882,0.9-2.882,2.522
				v13.63c0,1.471,0.99,1.772,1.771,1.772h1.711c2.942,0,5.193-3.213,5.824-6.425c0-0.09,0.18-0.12,0.42-0.12
				c0.48,0,0.961,0.181,0.931,0.421C328.532,82.438,328.201,86.4,328.111,88.262z"/>
			<path fill="#FFFFFF" d="M350.655,88.262c-1.981,0-4.503-0.15-6.364-0.15s-4.173,0.15-6.154,0.15c-0.12,0-0.24-0.42-0.24-0.66
				c0-0.21,0.12-0.631,0.24-0.661c2.282-0.239,2.882-0.9,2.882-2.521v-13.18c0-1.622-0.6-2.282-2.883-2.522
				c-0.12-0.03-0.239-0.45-0.239-0.66c0-0.24,0.119-0.661,0.239-0.661c1.982,0,4.113,0.15,5.976,0.15c1.86,0,3.962-0.15,5.944-0.15
				c5.613,0,7.955,1.952,7.955,4.684c0,2.281-2.041,4.203-5.884,4.773c4.593,0.209,7.025,2.912,7.025,5.614
				C359.152,85.65,356.99,88.262,350.655,88.262z M348.734,68.868h-0.36c-0.75,0-1.411,0.391-1.411,1.381v6.064h1.591
				c2.372,0,3.242-1.171,3.242-3.843C351.796,69.918,350.865,68.868,348.734,68.868z M349.215,77.754h-2.252l0.001,7.145
				c0,1.351,0.81,1.891,2.011,1.891c1.891,0,3.993-1.47,3.993-4.623C352.968,79.345,351.646,77.754,349.215,77.754z"/>
			<path fill="#FFFFFF" d="M383.18,88.262c-1.98,0-3.933-0.15-5.614-0.15c-1.861,0-4.022,0.15-6.004,0.15
				c-0.149,0-0.24-0.42-0.24-0.66c0-0.21,0.03-0.631,0.18-0.661c1.952-0.09,2.373-0.51,2.373-1.261c0-0.36-0.15-0.78-0.331-1.26
				l-0.811-2.102h-6.305l-0.721,1.742c-0.21,0.51-0.391,1.021-0.391,1.441c0,0.811,0.331,1.351,2.253,1.44
				c0.12,0.03,0.149,0.451,0.149,0.661c0,0.24-0.09,0.66-0.24,0.66c-1.741,0-2.312-0.15-3.933-0.15c-1.352,0-2.103,0.15-3.513,0.15
				c-0.12,0-0.21-0.42-0.21-0.66c0.03-0.21,0.21-0.631,0.36-0.661c1.741-0.15,2.492-0.96,3.482-3.001l7.444-16.782
				c0.061-0.12,0.48-0.24,0.901-0.24c0.39,0,0.841,0.12,0.9,0.24l6.665,16.782c0.78,2.071,1.502,2.791,3.543,3.001
				c0.12,0.03,0.301,0.451,0.301,0.661C383.421,87.842,383.3,88.262,383.18,88.262z M369.64,74.272l-2.642,6.604h5.164
				L369.64,74.272z"/>
			<path fill="#FFFFFF" d="M403.548,74.812c-0.181,0-0.54-0.059-0.57-0.15c-0.57-2.251-3.093-5.644-4.953-5.644h-0.451
				c-0.96,0-1.291,0.391-1.291,1.171v14.231c0,1.621,0.602,2.282,2.883,2.521c0.12,0.03,0.24,0.451,0.24,0.661
				c0,0.24-0.12,0.66-0.24,0.66c-1.981,0-3.993-0.15-5.824-0.15c-1.86,0-3.873,0.15-5.854,0.15c-0.121,0-0.241-0.42-0.241-0.66
				c0-0.21,0.12-0.631,0.241-0.661c2.281-0.239,2.882-0.9,2.882-2.521l-0.001-14.231c0-0.9-0.33-1.171-1.291-1.171h-0.24
				c-1.681,0-4.623,3.092-5.584,5.644c-0.029,0.12-0.36,0.15-0.539,0.15c-0.331,0-0.812-0.18-0.781-0.39
				c0.45-2.192,0.9-5.194,1.141-7.295c1.201,0.239,4.773,0.419,10.268,0.419c5.464,0,9.217-0.18,10.387-0.419
				c0.121,1.921,0.361,5.133,0.571,7.295C404.329,74.631,403.938,74.812,403.548,74.812z"/>
			<path fill="#FFFFFF" d="M426.06,87.451c-1.86,0-4.473,1.291-7.624,1.291c-8.347,0-12.431-5.254-12.431-10.808
				c0-5.854,4.834-11.018,12.67-11.018c3.422,0,5.373,0.9,7.235,0.9c0.09,1.801,0.271,4.924,0.419,6.545
				c0,0.149-0.51,0.24-0.75,0.24c-0.209,0-0.54-0.06-0.6-0.24c-0.511-2.942-3.243-6.004-6.425-6.004
				c-4.743,0-6.365,4.022-6.365,9.577c0,5.403,1.622,9.366,6.246,9.366c3.842,0,5.973-3.123,7.114-6.395
				c0.06-0.18,0.42-0.24,0.631-0.24c0.24,0,0.659,0.12,0.689,0.24C426.661,82.558,426.24,85.83,426.06,87.451z"/>
			<path fill="#FFFFFF" d="M454.946,88.262c-1.982,0-3.993-0.15-5.854-0.15s-3.603,0.15-5.585,0.15c-0.149,0-0.24-0.42-0.24-0.66
				c0-0.21,0.091-0.631,0.24-0.661c2.252-0.239,2.612-0.9,2.612-2.521v-5.945h-8.106v5.945c0,1.621,0.36,2.282,2.644,2.521
				c0.119,0.03,0.239,0.451,0.239,0.661c0,0.24-0.12,0.66-0.239,0.66c-1.982,0-3.754-0.15-5.615-0.15c-1.86,0-3.843,0.15-5.824,0.15
				c-0.149,0-0.24-0.42-0.24-0.66c0-0.21,0.091-0.631,0.24-0.661c2.252-0.239,2.852-0.9,2.852-2.521v-13.18
				c0-1.622-0.6-2.282-2.852-2.522c-0.149-0.03-0.24-0.45-0.24-0.66c0-0.24,0.091-0.661,0.24-0.661c1.981,0,3.963,0.15,5.824,0.15
				s3.603-0.15,5.614-0.15c0.12,0,0.24,0.42,0.24,0.661c0,0.21-0.12,0.63-0.24,0.66c-2.282,0.24-2.643,0.9-2.643,2.522v5.764h8.106
				v-5.764c0-1.622-0.36-2.282-2.612-2.522c-0.149-0.03-0.24-0.45-0.24-0.66c0-0.24,0.091-0.661,0.24-0.661
				c1.981,0,3.724,0.15,5.584,0.15c1.892,0,3.843-0.15,5.854-0.15c0.12,0,0.24,0.42,0.24,0.661c0,0.21-0.12,0.63-0.24,0.66
				c-2.282,0.24-2.882,0.9-2.882,2.522v13.18c0,1.621,0.601,2.282,2.883,2.521c0.12,0.03,0.24,0.451,0.24,0.661
				C455.187,87.842,455.066,88.262,454.946,88.262z"/>
			<path fill="#FFFFFF" d="M476.865,88.262c-1.921-0.06-7.354-0.15-9.337-0.15c-1.98,0-7.864,0.091-9.757,0.15
				c-0.12,0-0.24-0.42-0.24-0.66c0-0.21,0.12-0.631,0.24-0.661c2.282-0.239,2.883-0.9,2.883-2.521l-0.001-13.18
				c0-1.622-0.6-2.282-2.882-2.522c-0.12-0.03-0.24-0.45-0.24-0.66c0-0.24,0.12-0.661,0.24-0.661c1.892,0.06,7.476,0.15,9.457,0.15
				s7.476-0.09,9.396-0.15c-0.061,1.681,0.12,4.833,0.21,6.695c0,0.18-0.359,0.39-0.84,0.39c-0.271,0-0.511-0.09-0.511-0.18
				c-0.3-2.552-2.102-5.284-5.344-5.284h-1.802c-0.78,0-1.74,0.301-1.74,1.771v6.214h1.021c2.071,0,3.271-1.32,3.482-3.272
				c0.03-0.15,0.45-0.24,0.66-0.24c0.24,0,0.661,0.09,0.661,0.24c0,1.501-0.15,2.642-0.15,4.053c0,1.441,0.15,2.462,0.15,3.963
				c0,0.149-0.42,0.24-0.661,0.24c-0.21,0-0.63-0.091-0.66-0.24c-0.211-1.952-1.411-3.273-3.482-3.273h-1.021v6.395
				c0,1.471,0.96,1.772,1.74,1.772h1.562c3.213,0,5.674-2.582,6.274-5.705c0.03-0.09,0.211-0.119,0.451-0.119
				c0.479,0,0.96,0.179,0.931,0.42C477.315,83.159,476.956,86.4,476.865,88.262z"/>
			<path fill="#FFFFFF" d="M487.79,88.742c-2.853,0-4.714-1.111-7.116-1.531c-0.029-1.621-0.03-4.623-0.119-6.064
				c0-0.12,0.449-0.24,0.689-0.24c0.241,0,0.571,0.06,0.631,0.24c0.78,3.603,3.603,6.154,5.915,6.154
				c2.432,0,3.271-1.141,3.271-2.852c0-4.383-9.877-5.044-9.877-10.928c0-3.723,2.972-6.604,7.925-6.604
				c2.402,0,2.973,0.6,5.435,1.081c0.061,1.741,0.09,3.723,0.301,5.375c0,0.119-0.451,0.239-0.661,0.239
				c-0.24,0-0.63-0.06-0.69-0.239c-0.751-3.093-2.282-5.014-4.413-5.014c-1.861,0-3.032,1.141-3.032,2.641
				c0,4.143,9.817,4.864,9.817,10.929C495.865,86.22,492.473,88.742,487.79,88.742z"/>
		</g>
	</g>
	<g>
		<g>
			<path fill="#70CED1" d="M525.536,77.627c0,3.739-3.17,6.725-6.718,6.725c-3.737,0-6.724-2.986-6.724-6.725
				c0-3.726,2.986-6.717,6.724-6.717C522.366,70.91,525.536,73.901,525.536,77.627z"/>
		</g>
	</g>
	<g>
		<g>
			<path fill="#70CED1" d="M14.634,77.627c0,3.739-3.174,6.725-6.724,6.725c-3.734,0-6.718-2.986-6.718-6.725
				c0-3.726,2.983-6.717,6.718-6.717C11.46,70.91,14.634,73.901,14.634,77.627z"/>
		</g>
	</g>
</g>
</svg>
