<?xml version="1.0" encoding="utf-8"?>
<!-- Generator: Adobe Illustrator 16.0.0, SVG Export Plug-In . SVG Version: 6.00 Build 0)  -->
<!DOCTYPE svg PUBLIC "-//W3C//DTD SVG 1.1//EN" "http://www.w3.org/Graphics/SVG/1.1/DTD/svg11.dtd">
<svg version="1.1" id="Layer_1" xmlns="http://www.w3.org/2000/svg" xmlns:xlink="http://www.w3.org/1999/xlink" x="0px" y="0px"
	 width="143px" height="48px" viewBox="0 0 143 48" enable-background="new 0 0 143 48" xml:space="preserve">
<g>
	<g>
		<g>
			<path fill="#FFFFFF" d="M140.846,9.658c0.36,0,0.717,0.092,1.061,0.277c0.344,0.181,0.611,0.446,0.803,0.79
				c0.192,0.341,0.291,0.697,0.291,1.071c0,0.366-0.095,0.72-0.285,1.06c-0.189,0.34-0.455,0.601-0.796,0.792
				c-0.344,0.188-0.704,0.28-1.073,0.28c-0.373,0-0.732-0.093-1.073-0.28c-0.341-0.191-0.606-0.452-0.795-0.792
				c-0.194-0.34-0.288-0.694-0.288-1.06c0-0.374,0.097-0.73,0.291-1.071c0.191-0.344,0.46-0.608,0.803-0.79
				C140.13,9.75,140.483,9.658,140.846,9.658z M140.846,10.011c-0.305,0-0.599,0.073-0.884,0.229s-0.511,0.375-0.671,0.663
				c-0.164,0.283-0.249,0.582-0.249,0.892c0,0.305,0.085,0.6,0.243,0.885c0.159,0.283,0.379,0.503,0.667,0.659
				c0.285,0.156,0.582,0.235,0.894,0.235c0.308,0,0.608-0.08,0.894-0.235s0.507-0.376,0.665-0.659
				c0.161-0.285,0.233-0.58,0.233-0.885c0-0.31-0.075-0.609-0.237-0.892c-0.16-0.287-0.386-0.506-0.674-0.663
				C141.437,10.084,141.146,10.011,140.846,10.011z M139.896,12.973v-2.296h0.798c0.272,0,0.47,0.023,0.595,0.062
				c0.123,0.044,0.219,0.117,0.293,0.225c0.066,0.103,0.105,0.217,0.105,0.335c0,0.168-0.057,0.315-0.18,0.438
				c-0.122,0.125-0.282,0.194-0.482,0.211c0.081,0.032,0.147,0.076,0.196,0.121c0.093,0.093,0.206,0.245,0.344,0.455l0.278,0.45
				h-0.451l-0.206-0.36c-0.168-0.286-0.296-0.467-0.396-0.535c-0.067-0.054-0.165-0.079-0.299-0.079h-0.219v0.974H139.896z
				 M140.273,11.683h0.453c0.219,0,0.366-0.032,0.446-0.099c0.078-0.064,0.119-0.149,0.119-0.255c0-0.066-0.021-0.127-0.057-0.178
				c-0.04-0.057-0.095-0.099-0.158-0.125c-0.067-0.026-0.195-0.038-0.376-0.038h-0.428V11.683z"/>
		</g>
		<path fill="#FFFFFF" d="M124.307,10.285c-1.108,0.328-2.055,0.777-2.85,1.354c-0.793,0.577-1.421,1.248-1.876,2.016
			c-0.456,0.771-0.684,1.595-0.684,2.48c0,1.035,0.193,2.083,0.579,3.14c0.38,1.054,1.057,1.927,2.016,2.621
			c1.202,0.92,2.429,1.61,3.683,2.069c1.247,0.461,2.369,0.924,3.352,1.382c0.985,0.464,1.793,1.032,2.416,1.7
			c0.627,0.673,0.935,1.667,0.935,2.968c0,1.153-0.478,2.134-1.439,2.939c-0.964,0.806-2.117,1.211-3.463,1.211
			c-1.777,0-3.352-0.491-4.723-1.468c-1.372-0.984-2.176-2.277-2.416-3.892l-1.26,0.52c0.093,1.152-0.56,2.182-0.003,3.082
			c0.552,0.897,1.271,1.662,2.163,2.273c0.888,0.619,1.889,1.089,2.992,1.414c1.105,0.329,2.261,0.491,3.461,0.491
			c1.493,0,2.911-0.203,4.258-0.608c1.347-0.402,2.524-0.956,3.534-1.666c1.013-0.712,1.803-1.547,2.379-2.506
			c0.577-0.961,0.866-2.019,0.866-3.171c0-1.959-0.443-3.61-1.336-4.955c-0.887-1.345-2.414-2.42-4.579-3.226
			c-1.343-0.497-2.473-0.953-3.39-1.353c-0.916-0.402-1.659-0.796-2.233-1.181c-0.581-0.386-0.999-0.797-1.262-1.239
			c-0.269-0.44-0.396-0.949-0.396-1.525c0-1.961,1.201-2.938,3.601-2.938c1.492,0,2.732,0.509,3.715,1.526
			c0.99,1.018,1.481,2.199,1.481,3.542h2.74V9.909h-2.74v2.424c-0.675-1.003-1.539-1.676-2.596-2.017
			c-1.061-0.347-2.17-0.522-3.316-0.522C126.615,9.794,125.413,9.96,124.307,10.285 M116.943,3.91
			c-0.537-0.509-1.282-0.768-2.221-0.768c-0.912,0-1.635,0.258-2.175,0.768c-0.537,0.513-0.807,1.13-0.807,1.854
			c0,0.725,0.198,1.347,0.603,1.856c0.473,0.621,1.13,0.926,1.972,0.926c0.337,0,0.707-0.069,1.111-0.2
			c-0.035,1.127-0.873,1.92-2.522,2.379l0.254,0.764c0.437,0,0.957-0.197,1.564-0.605c0.404-0.296,0.787-0.643,1.161-1.044
			c0.368-0.405,0.696-0.834,0.98-1.293c0.288-0.455,0.51-0.919,0.657-1.391c0.151-0.472,0.228-0.92,0.228-1.351
			C117.749,5.05,117.483,4.423,116.943,3.91 M104.771,19.647l-8.149,2.648v-5.588c0-0.573,0.108-1.13,0.323-1.668
			c0.217-0.538,0.53-1.019,0.938-1.442c0.409-0.423,0.891-0.758,1.442-1.01c0.554-0.247,1.164-0.372,1.843-0.372
			c3.794,0,5.695,1.617,5.695,4.836C106.862,18.321,106.166,19.188,104.771,19.647 M109.464,29.903
			c-0.246,0.573-0.657,1.112-1.228,1.608c-0.579,0.501-1.253,0.936-2.021,1.299c-0.771,0.363-1.601,0.65-2.491,0.863
			c-0.891,0.214-1.745,0.316-2.557,0.316c-1.253,0-2.324-0.439-3.214-1.322c-0.887-0.885-1.332-1.942-1.332-3.168v-4.321
			l9.092-3.226c1.054-0.385,1.931-0.741,2.629-1.066c0.697-0.325,1.25-0.657,1.658-0.981c0.407-0.325,0.685-0.681,0.828-1.067
			c0.146-0.382,0.22-0.805,0.22-1.266c0-2.455-0.878-4.366-2.633-5.729c-1.756-1.367-4.174-2.048-7.248-2.048
			c-1.639,0-3.153,0.319-4.546,0.953c-1.396,0.633-2.611,1.469-3.646,2.503c-1.031,1.039-1.837,2.251-2.416,3.633
			c-0.575,1.383-0.864,2.821-0.864,4.318v3.225c0,1.577,0.276,3.093,0.832,4.551c0.549,1.459,1.331,2.736,2.343,3.834
			c1.009,1.096,2.21,1.968,3.604,2.617c1.398,0.656,2.958,0.981,4.692,0.981c5.048,0,8.415-2.168,10.095-6.505H109.464z
			 M88.214,10.371H79.49v2.42c2.066,0,3.097,0.363,3.097,1.096c0,0.153-0.021,0.328-0.07,0.516
			c-1.298,5.992-2.741,10.985-4.328,14.979c-1.873-3.994-3.46-8.987-4.757-14.979l-0.146-0.571c0-0.694,0.791-1.041,2.381-1.041
			h0.794v-2.42H63.98v2.42c0.624,0,1.105,0.077,1.439,0.233c0.34,0.149,0.697,0.613,1.083,1.378
			c1.687,3.688,3.127,7.317,4.328,10.889c1.201,3.574,2.236,7.143,3.102,10.713h4.762c1.249-4.914,2.455-9.158,3.607-12.728
			c1.155-3.573,2.213-6.531,3.172-8.874c0.288-0.65,0.578-1.083,0.864-1.297c0.292-0.21,0.7-0.315,1.23-0.315h0.646V10.371z
			 M55.469,19.647l-8.148,2.648v-5.588c0-0.573,0.108-1.13,0.32-1.668c0.22-0.538,0.531-1.019,0.939-1.442
			c0.412-0.423,0.894-0.758,1.443-1.01c0.553-0.247,1.165-0.372,1.84-0.372c3.799,0,5.701,1.617,5.701,4.836
			C57.564,18.321,56.867,19.188,55.469,19.647 M60.16,29.903c-0.242,0.573-0.652,1.112-1.228,1.608
			c-0.576,0.501-1.25,0.936-2.018,1.299c-0.773,0.363-1.603,0.65-2.49,0.863c-0.891,0.214-1.744,0.316-2.562,0.316
			c-1.251,0-2.32-0.439-3.211-1.322c-0.887-0.885-1.332-1.942-1.332-3.168v-4.321l9.089-3.226c1.054-0.385,1.936-0.741,2.632-1.066
			c0.694-0.325,1.25-0.657,1.659-0.981c0.408-0.325,0.684-0.681,0.828-1.067c0.145-0.382,0.216-0.805,0.216-1.266
			c0-2.455-0.877-4.366-2.632-5.729c-1.757-1.367-4.169-2.048-7.249-2.048c-1.635,0-3.152,0.319-4.543,0.953
			c-1.397,0.633-2.609,1.469-3.643,2.503c-1.035,1.039-1.84,2.251-2.416,3.633c-0.579,1.383-0.87,2.821-0.87,4.318v3.225
			c0,1.577,0.28,3.093,0.831,4.551c0.553,1.459,1.333,2.736,2.344,3.834c1.014,1.096,2.216,1.968,3.609,2.617
			c1.396,0.656,2.96,0.981,4.688,0.981c5.052,0,8.415-2.168,10.101-6.505H60.16z M41.011,42.803
			c-0.047,0.614-0.495,1.19-1.333,1.729c-0.844,0.539-1.649,0.805-2.418,0.805c-0.72,0-1.347-0.153-1.876-0.458
			c-0.527-0.308-1.08-0.707-1.443-1.456c-0.359-0.749-0.707-2.274-0.81-3.55c-0.134-1.669-0.124-5.576-0.124-7.499
			c0-3.879,0.065-9.659,0.213-12.499c0.146-2.843,0.311-5.204,0.505-7.085h5.482v-2.42h-5.482V0H31.2
			c0,1.156-0.206,2.343-0.611,3.576c-0.41,1.229-0.963,2.34-1.66,3.34c-0.696,0.997-1.53,1.824-2.491,2.474
			c-0.96,0.657-1.973,0.981-3.03,0.981v2.42h3.609c0.145,2.382,0.214,4.703,0.214,6.97V34.39c0,2.188,0.246,7.06,0.724,8.388
			c0.48,1.321,1.167,2.359,2.055,3.107c0.89,0.752,1.761,1.249,2.988,1.498c1.224,0.251,2.021,0.375,3.515,0.375
			c0.672,0,1.918-0.153,2.615-0.458c0.695-0.309,1.522-0.713,2.099-1.21c0.577-0.5,1.057-1.038,1.446-1.615
			c0.381-0.576,0.593-1.133,0.645-1.671H41.011z M6.71,10.285c-1.107,0.328-2.054,0.777-2.849,1.354
			c-0.796,0.577-1.42,1.248-1.872,2.016c-0.459,0.771-0.688,1.595-0.688,2.48c0,1.035,0.192,2.083,0.579,3.14
			c0.377,1.054,1.057,1.927,2.014,2.621c1.208,0.92,2.433,1.61,3.679,2.069c1.254,0.461,2.373,0.924,3.358,1.382
			c0.982,0.464,1.79,1.032,2.413,1.7c0.626,0.673,0.941,1.667,0.941,2.968c0,1.153-0.48,2.134-1.446,2.939
			c-0.96,0.806-2.114,1.211-3.461,1.211c-1.78,0-3.354-0.491-4.723-1.468c-1.372-0.984-2.18-2.277-2.416-3.892l-2.241,0.52
			c0.102,1.152,0.425,2.182,0.979,3.082c0.553,0.897,1.271,1.662,2.158,2.273c0.893,0.619,1.891,1.089,2.994,1.414
			c1.109,0.329,2.263,0.491,3.468,0.491c1.488,0,2.904-0.203,4.254-0.608c1.347-0.402,2.525-0.956,3.531-1.666
			c1.013-0.712,1.806-1.547,2.386-2.506c0.575-0.961,0.864-2.019,0.864-3.171c0-1.959-0.444-3.61-1.336-4.955
			c-0.892-1.345-2.416-2.42-4.579-3.226C13.37,19.956,12.24,19.5,11.326,19.1c-0.912-0.402-1.662-0.796-2.235-1.181
			c-0.579-0.386-0.998-0.797-1.26-1.239c-0.268-0.44-0.401-0.949-0.401-1.525c0-1.961,1.203-2.938,3.607-2.938
			c1.491,0,2.729,0.509,3.72,1.526c0.985,1.018,1.473,2.199,1.473,3.542h2.744V9.909h-2.744v2.424
			c-0.671-1.003-1.538-1.676-2.596-2.017c-1.058-0.347-2.162-0.522-3.314-0.522C9.02,9.794,7.814,9.96,6.71,10.285"/>
	</g>
	<g>
		<g>
			<path fill="#FFFFFF" d="M48.358,47.876v-6.423h1.191v6.423H48.358z"/>
			<path fill="#FFFFFF" d="M58.294,41.328c1.211,0,2.017,0.497,2.681,1.392l-0.913,0.847c-0.527-0.76-1.039-1.057-1.748-1.057
				c-1.096,0-1.79,1.066-1.79,2.143s0.684,2.163,1.79,2.163c0.737,0,1.221-0.331,1.748-1.01l0.913,0.869
				C60.311,47.57,59.698,48,58.313,48c-1.943,0-3.06-1.449-3.06-3.337C55.254,42.949,56.37,41.328,58.294,41.328z"/>
			<path fill="#FFFFFF" d="M66.567,47.876v-6.423h4.315v1.229h-3.124v1.105h2.834v1.239h-2.834v1.631h3.316v1.22H66.567z"/>
			<path fill="#FFFFFF" d="M86.265,41.328c1.211,0,2.017,0.497,2.682,1.392l-0.915,0.847c-0.527-0.76-1.039-1.057-1.749-1.057
				c-1.094,0-1.788,1.066-1.788,2.143s0.685,2.163,1.788,2.163c0.74,0,1.222-0.331,1.749-1.01l0.915,0.869
				C88.281,47.57,87.669,48,86.282,48c-1.943,0-3.057-1.449-3.057-3.337C83.226,42.949,84.339,41.328,86.265,41.328z"/>
			<path fill="#FFFFFF" d="M98.333,47.876l-1.594-2.334H95.73v2.334h-1.194v-6.423h2.586c1.325,0,2.291,0.713,2.291,1.961
				c0,1.038-0.694,1.669-1.386,1.907l1.786,2.555H98.333z M97.102,42.682H95.73v1.621h1.313c0.723,0,1.099-0.287,1.099-0.879
				C98.143,42.921,97.776,42.682,97.102,42.682z"/>
			<path fill="#FFFFFF" d="M105.481,47.876v-6.423h4.319v1.229h-3.128v1.105h2.839v1.239h-2.839v1.631h3.317v1.22H105.481z"/>
			<path fill="#FFFFFF" d="M119.494,46.303h-2.452l-0.584,1.573h-1.299l2.403-6.423h1.414l2.404,6.423h-1.299L119.494,46.303z
				 M117.486,45.093h1.556l-0.77-2.058L117.486,45.093z"/>
			<path fill="#FFFFFF" d="M131.894,47.876v-4.328l-1.452,2.525h-1.018l-1.483-2.592v4.395h-1.191v-6.423h1.492l1.679,3.038
				l1.666-3.038h1.499v6.423H131.894z"/>
		</g>
	</g>
</g>
</svg>
