<?xml version="1.0" encoding="utf-8"?>
<!-- Generator: Adobe Illustrator 16.0.0, SVG Export Plug-In . SVG Version: 6.00 Build 0)  -->
<!DOCTYPE svg PUBLIC "-//W3C//DTD SVG 1.0//EN" "http://www.w3.org/TR/2001/REC-SVG-20010904/DTD/svg10.dtd">
<svg version="1.0" id="Layer_1" xmlns="http://www.w3.org/2000/svg" xmlns:xlink="http://www.w3.org/1999/xlink" x="0px" y="0px"
	 width="472px" height="105px" viewBox="0 0 472 105" enable-background="new 0 0 472 105" xml:space="preserve">
<g>
	<path fill="#FFFFFF" d="M31.293,1.396h0.884v12.166h-0.884c-1.061-2.93-2.265-5.215-3.611-6.857
		c-0.977-1.151-2.202-2.163-3.675-3.035c-1.474-0.872-3.124-1.557-4.95-2.057c-1.827-0.499-3.675-0.749-5.544-0.749
		c-1.398,0-2.644,0.195-3.738,0.584C8.68,1.837,7.754,2.413,6.996,3.174C6.458,3.716,6.028,4.326,5.708,5.003
		c-0.32,0.677-0.48,1.329-0.48,1.956c0,1.185,0.455,2.209,1.364,3.073c0.42,0.423,1.022,0.83,1.806,1.219
		c0.783,0.39,1.793,0.771,3.031,1.143c1.238,0.373,2.968,0.83,5.19,1.371c0.606,0.187,1.019,0.296,1.237,0.331l1.238,0.305
		l1.97,0.507c3.334,0.864,5.768,1.625,7.299,2.286c1.532,0.661,2.837,1.532,3.915,2.616c0.842,0.796,1.494,1.727,1.958,2.794
		c0.463,1.066,0.695,2.218,0.695,3.454c0,1.22-0.261,2.443-0.783,3.67s-1.263,2.307-2.223,3.238
		c-1.246,1.287-2.783,2.252-4.609,2.895c-1.827,0.644-3.911,0.965-6.251,0.965c-1.633,0-3.169-0.165-4.609-0.495
		c-1.44-0.33-3.195-0.936-5.266-1.816c-1.347-0.542-2.374-0.91-3.082-1.105c-0.707-0.194-1.372-0.292-1.995-0.292
		c-1.196,0-2.21,0.317-3.043,0.952c-0.833,0.635-1.385,1.537-1.654,2.705H0.53V20.368h0.884c0.354,2.912,1.524,5.554,3.511,7.924
		c1.195,1.388,2.723,2.679,4.584,3.873c1.86,1.194,3.81,2.121,5.847,2.781c2.037,0.66,3.974,0.991,5.809,0.991
		c1.633,0,3.128-0.271,4.483-0.813c1.355-0.542,2.412-1.295,3.17-2.26s1.137-2.057,1.137-3.276c0-1.286-0.514-2.446-1.541-3.479
		c-0.471-0.457-1.082-0.88-1.831-1.27c-0.75-0.39-1.718-0.788-2.904-1.193c-1.188-0.407-2.816-0.889-4.888-1.448l-2.525-0.686
		c-3.94-1.067-6.668-1.896-8.184-2.489c-1.7-0.626-3.035-1.253-4.003-1.879s-1.806-1.422-2.513-2.387
		C0.521,13.401,0,11.911,0,10.286C0,8.322,0.581,6.557,1.743,4.99c1.162-1.566,2.787-2.789,4.875-3.67C8.705,0.44,11.021,0,13.563,0
		c3.839,0,7.82,1.075,11.946,3.225c1.448,0.728,2.434,1.092,2.955,1.092C29.778,4.317,30.721,3.344,31.293,1.396z"/>
	<path fill="#FFFFFF" d="M37.911,0.711h14.75L65.946,27.86L79.13,0.711h13.917v0.94h-1.289c-2.172,0-3.785,0.529-4.836,1.587
		c-1.052,1.059-1.579,2.68-1.579,4.864v20.647c0,2.167,0.531,3.784,1.591,4.851s2.668,1.6,4.824,1.6h1.289v0.991H70.24V35.2h1.516
		c2.155,0,3.759-0.529,4.812-1.587c1.052-1.058,1.578-2.679,1.578-4.863V4.622h-0.101L62.89,36.19h-0.859L46.7,4.723h-0.101v22.883
		c0,1.592,0.303,2.942,0.91,4.051c0.606,1.109,1.498,1.964,2.677,2.565s2.61,0.927,4.294,0.978v0.991H37.911V35.2h0.354
		c2.273,0,4.057-0.669,5.354-2.006c1.296-1.337,1.944-3.149,1.944-5.435V8.102c0-2.201-0.521-3.826-1.565-4.876
		c-1.044-1.05-2.661-1.574-4.85-1.574h-1.237V0.711z"/>
	<path fill="#FFFFFF" d="M116.434,0h0.935l14.194,31.035c0.455,0.965,0.964,1.761,1.528,2.387c0.564,0.626,1.2,1.08,1.907,1.359
		c0.707,0.279,1.541,0.419,2.5,0.419h0.935v0.991H117.95V35.2h2.677c1.33,0,2.302-0.182,2.917-0.546
		c0.614-0.364,0.922-0.927,0.922-1.689c0-0.474-0.122-1.049-0.366-1.727c-0.244-0.677-0.779-1.905-1.604-3.682
		c-0.051-0.102-0.126-0.271-0.227-0.508c-0.101-0.237-0.21-0.465-0.328-0.686l-0.581-1.295h-14.952l-1.137,2.641
		c-0.37,0.898-0.555,1.803-0.555,2.718c0,0.779,0.214,1.549,0.644,2.311c0.429,0.762,0.989,1.337,1.68,1.727
		c0.455,0.271,0.863,0.453,1.225,0.546c0.361,0.093,0.879,0.157,1.553,0.19v0.991H95.446V35.2c1.044-0.118,1.873-0.305,2.487-0.559
		c0.615-0.254,1.301-0.677,2.059-1.27c1.784-1.389,3.527-4.004,5.228-7.848L116.434,0z M113.757,8.305l-6.92,15.822h14.018
		L113.757,8.305z"/>
	<path fill="#FFFFFF" d="M141.211,0.711h24.07v0.94h-2.551c-2.172,0-3.78,0.524-4.824,1.574c-1.044,1.05-1.566,2.675-1.566,4.876
		V35.25h9.143c1.802,0,3.502-0.402,5.102-1.206c1.599-0.804,2.989-1.926,4.167-3.365c0.707-0.897,1.33-1.786,1.869-2.667
		s1.052-1.947,1.541-3.201c0.488-1.252,0.968-2.691,1.439-4.317h0.935V36.19h-39.325l-0.05-0.94h1.313
		c4.277,0,6.415-2.167,6.415-6.501V8.102c0-4.301-2.138-6.451-6.415-6.451h-1.263V0.711z"/>
	<path fill="#FFFFFF" d="M183.794,0.711h24.07v0.94h-2.551c-2.172,0-3.78,0.524-4.824,1.574c-1.044,1.05-1.566,2.675-1.566,4.876
		V35.25h9.143c1.801,0,3.502-0.402,5.102-1.206c1.599-0.804,2.989-1.926,4.167-3.365c0.708-0.897,1.33-1.786,1.869-2.667
		s1.052-1.947,1.541-3.201c0.488-1.252,0.968-2.691,1.44-4.317h0.935V36.19h-39.325l-0.05-0.94h1.313
		c4.276,0,6.415-2.167,6.415-6.501V8.102c0-4.301-2.139-6.451-6.415-6.451h-1.263V0.711z"/>
	<path fill="#FFFFFF" d="M243.098,0.711h25.861c2.004,0,3.941,0.199,5.809,0.597c1.871,0.398,3.336,0.927,4.396,1.587
		c1.312,0.779,2.332,1.723,3.055,2.832c0.725,1.109,1.086,2.298,1.086,3.568c0,2.066-1.137,3.852-3.408,5.359
		c-0.91,0.609-1.887,1.117-2.93,1.523c-1.045,0.407-2.518,0.873-4.42,1.397v0.102c2.424,0.458,4.42,1.008,5.986,1.651
		c4.275,1.896,6.414,4.504,6.414,7.822c0,1.829-0.645,3.425-1.932,4.788c-1.289,1.363-3.129,2.412-5.52,3.149
		s-5.211,1.105-8.461,1.105h-25.938V35.2h1.035c2.172,0,3.783-0.529,4.836-1.587c1.053-1.058,1.578-2.679,1.578-4.863V8.102
		c0-2.201-0.525-3.835-1.578-4.902s-2.664-1.6-4.836-1.6h-1.035V0.711z M257.998,1.6v15.543h7.654c6.279,0,9.42-2.751,9.42-8.254
		c0-2.472-0.67-4.305-2.008-5.499c-1.34-1.193-3.406-1.791-6.201-1.791H257.998z M257.998,18.133v17.168h7.932
		c3.35,0,5.918-0.749,7.703-2.248c1.783-1.498,2.676-3.627,2.676-6.387c0-2.353-0.723-4.225-2.17-5.613
		c-1.096-1.101-2.434-1.862-4.018-2.286c-1.582-0.423-3.896-0.635-6.945-0.635H257.998z"/>
	<path fill="#FFFFFF" d="M308.84,0h0.936l14.193,31.035c0.455,0.965,0.965,1.761,1.529,2.387c0.562,0.626,1.199,1.08,1.906,1.359
		s1.541,0.419,2.5,0.419h0.934v0.991h-20.482V35.2h2.678c1.33,0,2.303-0.182,2.918-0.546c0.613-0.364,0.92-0.927,0.92-1.689
		c0-0.474-0.121-1.049-0.365-1.727c-0.244-0.677-0.779-1.905-1.604-3.682c-0.051-0.102-0.127-0.271-0.227-0.508
		c-0.102-0.237-0.211-0.465-0.33-0.686l-0.58-1.295h-14.953l-1.137,2.641c-0.369,0.898-0.555,1.803-0.555,2.718
		c0,0.779,0.215,1.549,0.645,2.311c0.43,0.762,0.988,1.337,1.68,1.727c0.455,0.271,0.863,0.453,1.225,0.546
		c0.361,0.093,0.879,0.157,1.553,0.19v0.991h-14.371V35.2c1.043-0.118,1.873-0.305,2.488-0.559c0.613-0.254,1.301-0.677,2.059-1.27
		c1.785-1.389,3.527-4.004,5.229-7.848L308.84,0z M306.164,8.305l-6.922,15.822h14.018L306.164,8.305z"/>
	<path fill="#FFFFFF" d="M334.047,0.711h41.371v18.006l-0.809,0.051c-0.42-4.504-1.768-8.372-4.039-11.606
		c-2.695-3.674-6.113-5.511-10.256-5.511h-1.844v27.098c0,4.301,2.131,6.451,6.391,6.451h5.33v0.991h-30.814V35.2h5.277
		c4.277,0,6.416-2.15,6.416-6.451V1.651h-2.273c-4.209,0-7.627,1.98-10.254,5.942c-1.295,1.947-2.281,4.267-2.955,6.959
		c-0.219,0.915-0.438,2.303-0.656,4.165h-0.885V0.711z"/>
	<path fill="#FFFFFF" d="M417.521,23.695h0.885c-0.404,1.507-0.852,2.76-1.34,3.759c-0.488,0.999-1.162,2.041-2.02,3.124
		c-3.418,4.232-7.99,6.349-13.715,6.349c-3.604,0-6.963-0.842-10.078-2.527c-3.115-1.685-5.59-3.954-7.426-6.807
		c-1.834-2.853-2.752-5.93-2.752-9.232c0-1.963,0.361-3.915,1.086-5.854s1.781-3.75,3.17-5.435c1.389-1.685,3-3.128,4.836-4.33
		C392.947,0.914,396.154,0,399.791,0c1.213,0,2.361,0.106,3.447,0.317s2.113,0.55,3.082,1.016c0.969,0.466,1.965,1.08,2.992,1.841
		c1.145,0.796,1.988,1.194,2.527,1.194c1.195,0,2.691-1.253,4.494-3.759h0.885l0.732,17.066h-0.834
		c-0.287-1.236-0.561-2.243-0.82-3.022c-0.262-0.779-0.611-1.591-1.049-2.438c-1.16-2.387-2.533-4.436-4.117-6.146
		c-1.582-1.71-3.309-3.013-5.176-3.911c-1.869-0.897-3.789-1.346-5.76-1.346c-2.357,0-4.277,0.631-5.76,1.893
		c-1.48,1.261-2.578,3.226-3.295,5.892c-0.715,2.667-1.072,6.057-1.072,10.171c0,2.371,0.125,4.47,0.379,6.298
		c0.252,1.829,0.643,3.374,1.174,4.635c0.531,1.262,1.199,2.316,2.008,3.162c0.992,1.016,2.201,1.791,3.625,2.324
		c1.422,0.533,2.975,0.799,4.658,0.799c1.566,0,3.07-0.203,4.51-0.609c1.439-0.407,2.785-1.012,4.041-1.816
		c1.254-0.804,2.402-1.799,3.447-2.984c0.842-0.982,1.523-1.968,2.045-2.959S417,25.32,417.521,23.695z"/>
	<path fill="#FFFFFF" d="M423.127,35.2h1.137c2.174,0,3.785-0.529,4.838-1.587c1.051-1.058,1.578-2.679,1.578-4.863
		c0.219-1.202,0.357-2.34,0.416-3.416c0.059-1.075,0.072-2.688,0.039-4.838c-0.035-2.302-0.105-4.851-0.215-7.645
		s-0.215-4.605-0.316-5.435c-0.102-1.236-0.287-2.171-0.555-2.806c-0.27-0.635-0.684-1.172-1.238-1.613
		c-1.01-0.897-2.525-1.346-4.547-1.346h-1.211v-0.94h22.25v0.94h-0.783c-2.172,0-3.783,0.529-4.836,1.587
		c-1.053,1.059-1.578,2.68-1.578,4.864v9.523h18.992V8.102c0-2.201-0.521-3.826-1.564-4.876c-1.045-1.05-2.662-1.574-4.85-1.574
		h-0.732v-0.94H472v0.94h-1.035c-2.156,0-3.764,0.529-4.824,1.587c-1.061,1.059-1.592,2.68-1.592,4.864v20.647
		c0,2.167,0.539,3.784,1.617,4.851c1.076,1.067,2.678,1.6,4.799,1.6H472v0.991h-22.049V35.2h0.732c2.172,0,3.783-0.529,4.836-1.587
		c1.053-1.058,1.578-2.679,1.578-4.863V18.667h-18.992v10.083c0,2.167,0.539,3.784,1.617,4.851c1.076,1.067,2.676,1.6,4.797,1.6
		h0.783v0.991h-22.176V35.2z"/>
</g>
<g>
	<path fill="#FFFFFF" d="M67.042,86.47c-10.146,0-10.221-10.427-5.147-11.628c1.269-2.55,3.656-7.127,4.775-10.052
		c0.671-4.352,3.059-5.702,5.372-5.702c0.671,0,0.895,0.45,0.447,0.75c-1.492,0.825,0.299,2.025,3.954,7.802
		C81.664,75.893,78.755,86.47,67.042,86.47z M63.088,74.692c2.089,0.075,3.73,1.8,3.73,3.901c0,2.176-1.716,3.901-3.88,3.901
		c-1.567,0-2.909-0.9-3.506-2.175c0.298,2.4,2.164,4.951,5.745,4.951c3.954,0,6.416-2.775,6.416-7.276
		c0-4.727-4.178-8.927-4.551-11.403C65.848,68.766,64.431,72.066,63.088,74.692z"/>
	<path fill="#FFFFFF" d="M86.663,66.215c0.895-2.701-0.672-3.451-3.134-2.025c-0.671,0.375-0.82-0.15-0.447-0.525
		c0.895-0.9,2.76-1.576,4.775-1.576c5.819,0,6.863,5.327,5.371,9.903c-1.194,3.526-2.387,6.227-3.208,9.152
		c-0.746,2.701,0.224,3.526,1.492,3.526c3.208,0,7.013-6.602,9.55-12.153c0.224-0.525,0.97,0,0.747,0.45
		c-3.805,7.952-6.715,13.503-13.355,13.503c-5.521,0-7.982-4.951-5.819-10.578C84.052,72.142,85.693,69.141,86.663,66.215z
		 M89.871,54.812c0-2.101,1.715-3.826,3.805-3.826c2.163,0,3.879,1.726,3.879,3.826c0,2.175-1.716,3.901-3.879,3.901
		C91.586,58.713,89.871,56.988,89.871,54.812z"/>
	<path fill="#FFFFFF" d="M117.325,65.015c0-1.05-0.522-1.951-1.566-1.951c-1.642,0-3.879,2.926-5.596,6.827
		c-1.342,3.601-3.357,9.002-4.402,12.303c-0.895,2.7,0.672,3.451,3.134,2.025c0.671-0.375,0.82,0.15,0.447,0.525
		c-0.895,0.9-2.76,1.575-4.774,1.575c-5.819,0-6.938-5.926-5.297-10.428c1.343-3.826,2.462-6.751,4.028-10.653
		c1.045-2.625-0.671-3.151-3.133-1.875c-0.671,0.375-0.746-0.225-0.373-0.6c0.896-0.75,3.432-1.65,5.446-1.65
		c4.178,0,5.969,2.476,5.67,5.701c1.566-2.625,3.656-5.626,7.908-5.626c4.551,0,5.894,3.601,5.894,6.076
		c0,3.526-3.432,10.953-4.253,13.879c-0.746,2.701,0.224,3.526,1.492,3.526c3.208,0,7.013-6.602,9.549-12.153
		c0.224-0.525,0.97,0,0.747,0.45c-3.805,7.952-7.237,13.503-12.907,13.503c-5.745,0-8.132-4.726-6.192-10.427
		C114.192,72.817,117.325,68.016,117.325,65.015z"/>
	<path fill="#FFFFFF" d="M142.841,61.189c4.327,0,6.042,3,6.042,6.001c0,1.725-0.97,3.9-3.133,3.9c-1.417,0-2.536-1.125-2.536-2.551
		c0-1.425,1.119-2.55,2.536-2.55c0.97,0,1.865,0.6,2.312,1.425c0.224-1.726-0.596-4.351-2.834-4.351
		c-1.94,0-4.999,1.576-8.207,10.503c-1.641,4.5-2.089,11.928,2.91,11.928c5.968,0,10.295-7.427,12.832-12.979
		c0.224-0.525,0.97,0,0.746,0.45c-3.805,7.952-7.834,13.503-14.623,13.503C121.653,86.47,127.099,61.189,142.841,61.189z"/>
	<path fill="#FFFFFF" d="M174.699,72.517c0.224-0.525,0.97,0,0.746,0.45c-3.805,7.952-7.236,13.503-14.026,13.503
		c-18.204,0-12.384-25.281,3.357-25.281c9.549,0,5.819,13.653-6.267,13.653c-1.193,4.501-1.044,10.578,4.029,10.578
		C168.208,85.42,172.162,78.068,174.699,72.517z M158.808,74.018c10.221,0,12.907-10.953,8.356-10.953
		c-1.94,0-4.999,1.576-8.207,10.503C158.882,73.717,158.808,73.867,158.808,74.018z"/>
	<path fill="#FFFFFF" d="M201.557,74.617c0.075-0.075,0.075-0.075,0.075-0.15l0.298-0.675c0.97-2.4,1.865-4.726,2.76-7.126
		c1.045-3.001-0.895-4.051-3.357-2.625c-0.671,0.375-0.821-0.15-0.448-0.525c0.896-0.9,2.462-1.575,4.477-1.575
		c6.267,0,7.535,4.726,5.595,9.978c-1.417,3.826-3.059,7.051-3.059,9.977c0,2.175,1.343,2.851,2.537,2.851
		c4.775,0,10.893-9.228,10.893-16.504c0-2.25-0.671-3.976-1.865-4.951c0.149,0.375,0.299,0.675,0.299,1.05
		c0,1.425-1.194,2.55-2.611,2.55c-1.417,0-2.537-1.125-2.537-2.55c0-1.351,1.045-2.551,2.462-2.626h0.075h0.224
		c2.686,0.15,4.849,2.476,4.849,6.527c0,7.202-5.744,18.155-14.996,18.155c-4.327,0-7.162-2.926-7.087-6.677
		c-2.312,4.577-5.521,6.677-8.953,6.677c-5.371,0-7.61-4.577-5.595-9.603c1.417-3.601,2.984-6.752,4.178-10.127
		c1.044-3.001-0.895-4.051-3.357-2.625c-0.671,0.375-0.82-0.15-0.448-0.525c0.896-0.9,2.462-1.575,4.477-1.575
		c6.267,0,7.685,5.326,5.894,10.428c-1.343,3.826-3.581,7.727-3.655,9.827c-0.075,1.65,1.417,2.626,2.984,1.65
		C198.424,82.119,200.587,77.018,201.557,74.617z"/>
	<path fill="#FFFFFF" d="M248.41,84.67c3.209,0,7.014-6.602,9.551-12.153c0.223-0.525,0.969,0,0.746,0.45
		c-3.807,7.952-6.715,13.503-13.355,13.503c-3.953,0-6.49-2.776-6.639-6.526c-1.344,3.151-3.508,6.526-7.983,6.526
		c-13.578,0-6.938-25.281,8.058-25.281c3.58,0,4.924,1.65,5.297,3.675c1.193-1.65,3.207-2.85,5.223-2.85
		c3.432,0,5.072,2.1,5.594,3.75c0.076,0.3-0.373,0.675-0.67,0.3c-0.82-0.975-1.939-0.675-2.91,1.876
		c-0.521,1.425-3.432,9.752-4.4,13.203C246.174,83.845,247.143,84.67,248.41,84.67z M243.338,66.14c0-0.075,0-0.075,0.074-0.15
		c0-1.65-0.746-2.926-2.014-2.926c-1.939,0-5,1.576-8.207,10.503c-1.642,4.5-3.059,11.027,0.224,11.027
		c2.909,0,5.147-6.676,6.417-9.902C240.951,71.617,241.771,69.516,243.338,66.14z"/>
	<path fill="#FFFFFF" d="M255.574,95.848c1.418,0,2.537,1.125,2.537,2.551c0,1.425-1.119,2.55-2.537,2.55
		c-0.969,0-2.014-0.525-2.461-1.35c-0.225,1.725,1.342,4.501,4.699,4.426c3.582,0,4.998-3.601,6.193-7.127l5.371-15.753
		c-2.238,3.601-5.072,5.251-8.133,5.251c-5.371,0-7.609-4.577-5.596-9.603c1.418-3.601,2.986-6.752,4.18-10.127
		c1.045-3.001-0.896-4.051-3.357-2.625c-0.672,0.375-0.822-0.15-0.449-0.525c0.896-0.9,2.463-1.575,4.479-1.575
		c6.266,0,7.684,5.326,5.893,10.428c-1.342,3.826-3.582,7.727-3.656,9.827c-0.074,1.65,1.418,2.626,2.984,1.65
		c2.984-1.875,5.148-7.427,6.043-9.527l2.762-8.102c0.895-2.701-0.672-3.451-3.135-2.025c-0.672,0.375-0.82-0.15-0.447-0.525
		c0.896-0.9,2.762-1.576,4.775-1.576c5.521,0,6.639,5.251,5.371,9.903c-1.268,4.501-4.477,13.954-5.67,17.329
		C270.943,102.224,264.826,105,258.783,105C250.576,105,250.727,95.848,255.574,95.848z"/>
	<path fill="#FFFFFF" d="M321.9,76.118c-2.463,5.477-7.76,10.353-15.145,10.353c-7.238,0-11.713-4.876-8.207-15.154
		c1.342-3.826,7.311-18.904,8.877-22.806c1.045-2.625-0.67-3.451-3.133-2.025c-0.672,0.375-0.82-0.15-0.447-0.525
		c0.895-0.9,2.76-1.575,4.775-1.575c5.818,0,7.012,5.401,5.371,9.902l-3.582,9.602c1.119-1.575,2.984-2.7,5.672-2.7
		c7.162,0,8.803,7.276,6.191,14.028c4.252-0.75,7.162-3.376,9.324-6.452c0.299-0.45,0.971-0.075,0.672,0.375
		C330.406,72.142,327.123,75.442,321.9,76.118z M314.141,74.992c-3.58-1.875-5.072-5.401-4.625-8.477
		c-2.387,6.452-4.775,13.354-5.297,15.229c-0.746,2.7-0.074,3.976,1.492,3.976C308.023,85.72,311.008,83.245,314.141,74.992z
		 M314.365,74.317c0-0.075,0-0.15,0.074-0.225c1.643-4.501,2.686-11.028-1.344-11.028C309.441,63.064,308.471,71.242,314.365,74.317
		z"/>
	<path fill="#FFFFFF" d="M351.146,84.67c3.207,0,7.014-6.602,9.549-12.153c0.225-0.525,0.971,0,0.746,0.45
		c-3.805,7.952-6.715,13.503-13.354,13.503c-3.955,0-6.49-2.776-6.641-6.526c-1.342,3.151-3.506,6.526-7.982,6.526
		c-13.578,0-6.938-25.281,8.057-25.281c3.582,0,4.924,1.65,5.297,3.675c1.195-1.65,3.209-2.85,5.223-2.85
		c3.432,0,5.074,2.1,5.596,3.75c0.074,0.3-0.373,0.675-0.672,0.3c-0.82-0.975-1.939-0.675-2.91,1.876
		c-0.521,1.425-3.43,9.752-4.4,13.203C348.908,83.845,349.879,84.67,351.146,84.67z M346.072,66.14c0-0.075,0-0.075,0.074-0.15
		c0-1.65-0.746-2.926-2.014-2.926c-1.939,0-4.998,1.576-8.205,10.503c-1.643,4.5-3.061,11.027,0.223,11.027
		c2.91,0,5.148-6.676,6.416-9.902C343.686,71.617,344.506,69.516,346.072,66.14z"/>
	<path fill="#FFFFFF" d="M372.037,61.189c4.326,0,6.043,3,6.043,6.001c0,1.725-0.971,3.9-3.133,3.9
		c-1.418,0-2.537-1.125-2.537-2.551c0-1.425,1.119-2.55,2.537-2.55c0.969,0,1.865,0.6,2.312,1.425
		c0.223-1.726-0.598-4.351-2.836-4.351c-1.939,0-4.998,1.576-8.207,10.503c-1.641,4.5-2.088,11.928,2.91,11.928
		c5.969,0,10.297-7.427,12.832-12.979c0.225-0.525,0.971,0,0.746,0.45c-3.805,7.952-7.834,13.503-14.623,13.503
		C350.85,86.47,356.295,61.189,372.037,61.189z"/>
	<path fill="#FFFFFF" d="M396.285,71.242c0-0.9-0.672-1.576-1.941-1.351c-2.162,0.375-4.027,3.676-5.445,7.502
		c-0.82,2.25-1.418,4.051-1.641,4.801c-0.895,2.7,0.67,3.451,3.133,2.025c0.672-0.375,0.82,0.15,0.447,0.525
		c-0.895,0.9-2.76,1.575-4.773,1.575c-5.82,0-6.939-5.926-5.299-10.428c1.344-3.826,8.207-23.48,9.773-27.382
		c1.045-2.625-0.67-3.451-3.133-2.025c-0.67,0.375-0.82-0.15-0.447-0.525c0.895-0.9,2.76-1.575,4.775-1.575
		c5.818,0,7.012,5.401,5.371,9.902c-0.746,2.025-3.357,9.227-5.67,15.829c3.953-4.726,7.834-10.502,11.562-10.502
		c1.865,0,3.881,1.425,3.881,3.901c0,1.8-1.344,4.051-3.73,4.051c-2.164,0-3.879-1.726-3.879-3.901c0-0.675,0.223-1.275,0.521-1.8
		c-1.715,1.65-4.775,5.176-6.863,7.727c1.268-0.9,2.834-1.501,4.773-1.501c4.627,0,5.67,2.926,5.67,5.402
		c0,2.551-1.566,5.851-2.088,7.802c-0.746,2.701,0.299,3.526,1.791,3.376c3.73-0.45,7.012-6.602,9.549-12.153
		c0.225-0.525,0.971,0,0.746,0.45c-3.805,7.952-6.715,13.503-13.354,13.503c-5.223,0-7.535-4.501-5.447-10.127
		C395.314,74.467,396.359,72.517,396.285,71.242z"/>
</g>
</svg>
