<?xml version="1.0" encoding="UTF-8"?>
<!-- Generator: Adobe Illustrator 16.0.0, SVG Export Plug-In . SVG Version: 6.00 Build 0)  -->
<!DOCTYPE svg PUBLIC "-//W3C//DTD SVG 1.0//EN" "http://www.w3.org/TR/2001/REC-SVG-20010904/DTD/svg10.dtd">
<svg version="1.0" id="Layer_1" xmlns="http://www.w3.org/2000/svg" xmlns:xlink="http://www.w3.org/1999/xlink" x="0px" y="0px" width="50px" height="100px" viewBox="0 0 50 100" enable-background="new 0 0 50 100" xml:space="preserve">
<g>
	<circle fill="#FFFFFF" cx="25" cy="25" r="25"/>
	<g>
		<path fill="#222222" d="M17.322,37.972l18.904-12.527c0.286-0.188,0.457-0.511,0.452-0.854c-0.005-0.344-0.184-0.661-0.476-0.842    l-18.88-11.72l0.023,2.352l16.459,10.248L17.322,35.514V37.972z"/>
	</g>
</g>
<g>
	<circle fill="#8AD3D9" cx="25" cy="75" r="25"/>
	<g>
		<path fill="#FFFFFF" d="M17.322,87.972l18.904-12.527c0.286-0.188,0.457-0.511,0.452-0.854c-0.005-0.344-0.184-0.661-0.476-0.842    l-18.88-11.72l0.023,2.352l16.459,10.248L17.322,85.514V87.972z"/>
	</g>
</g>
</svg>