<?xml version="1.0" encoding="utf-8"?>
<!-- Generator: Adobe Illustrator 16.0.0, SVG Export Plug-In . SVG Version: 6.00 Build 0)  -->
<!DOCTYPE svg PUBLIC "-//W3C//DTD SVG 1.0//EN" "http://www.w3.org/TR/2001/REC-SVG-20010904/DTD/svg10.dtd">
<svg version="1.0" id="Layer_1" xmlns="http://www.w3.org/2000/svg" xmlns:xlink="http://www.w3.org/1999/xlink" x="0px" y="0px"
	 width="282px" height="69px" viewBox="0 0 282 69" enable-background="new 0 0 282 69" xml:space="preserve">
<g>
	<path fill="#70CED1" d="M65.793,6.558c1.793,0,3.304,1.521,3.304,3.326c0,1.806-1.51,3.327-3.304,3.327H65.51
		c-7.457-0.285-6.23-12.735,3.304-12.735c5.475,0,8.874,3.992,8.874,9.219c0,16.251-30.112,39.727-30.112,57.879
		c0,1.141-0.094,1.616-1.605,1.141c-4.059-1.045-10.006-7.318-10.006-17.393c0-5.892,1.227-11.405,2.926-16.632
		c-6.513,12.45-14.254,24.806-14.254,32.884c0,1.141-0.094,1.616-1.604,1.141c-4.059-1.045-10.761-6.558-10.761-15.682
		c0-17.868,12.366-31.269,12.366-43.053c0-6.178-4.72-9.029-8.684-9.029c-9.345,0-14.915,6.462-14.915,12.45
		c0,4.847,3.587,8.459,8.59,8.459c3.493,0,5.758-2.091,6.702-4.562c-0.472,0.285-1.039,0.38-1.605,0.38
		c-1.793,0-3.209-1.426-3.209-3.231c0-1.806,1.416-3.327,3.209-3.327c1.794,0,3.304,1.521,3.304,3.327
		c0.283,2.281-1.793,8.458-8.401,8.458C3.775,22.905,0,18.628,0,13.496C0,7.128,5.38,0,16.047,0c10.95,0,17.558,5.893,17.558,14.066
		c0,12.831-13.782,29.843-13.782,44.765c0,5.608,2.832,7.889,3.587,8.363c0-11.12,15.387-31.838,20.862-47.805
		c0.943-3.041,1.699-5.988,1.793-8.839c0-0.19,0.095-0.475,0.095-0.666v-0.57c0-2.851-1.321-5.797-3.682-6.748
		c-1.038-0.38-1.133-1.331,0.095-1.331c7.74,0,13.121,5.797,13.121,12.545c0,13.686-12.837,30.413-12.837,45.334
		c0,5.608,2.737,7.604,3.492,8.078c0-18.628,30.112-41.533,30.112-57.689c0-4.467-3.115-8.174-7.646-8.078
		c-6.135,0.189-8.307,6.462-6.229,9.313c-0.095-0.285-0.095-0.57-0.095-0.855C62.49,8.079,64,6.558,65.793,6.558z"/>
	<path fill="#70CED1" d="M86.087,41.818c0-1.331-0.661-2.471-1.982-2.471c-2.171,0-5.192,4.087-7.363,9.409
		c-2.454,6.748-4.625,12.926-5.191,14.826c-1.133,3.422,0.849,4.372,3.964,2.566c0.849-0.475,1.038,0.19,0.566,0.665
		c-1.133,1.141-3.493,1.996-6.042,1.996c-7.363,0-8.779-7.508-6.702-13.21c1.699-4.848,10.478-29.748,12.46-34.69
		c1.321-3.326-0.85-4.372-3.965-2.566c-0.849,0.475-1.038-0.19-0.566-0.666c1.132-1.141,3.492-1.996,6.041-1.996
		c7.363,0,8.873,6.843,6.796,12.545l-5.286,14.541c1.888-2.946,4.437-5.797,9.156-5.797c5.758,0,7.458,4.562,7.458,7.698
		c0,4.467-4.342,13.876-5.381,17.583c-0.943,3.421,0.283,4.467,1.888,4.467c4.059,0,8.873-8.364,12.083-15.397
		c0.283-0.665,1.227,0,0.944,0.57C100.152,61.967,95.81,69,88.636,69c-7.269,0-10.29-5.988-7.835-13.211
		C82.122,51.702,86.087,45.62,86.087,41.818z"/>
	<path fill="#70CED1" d="M131.584,66.719c4.059,0,8.874-8.364,12.083-15.397c0.283-0.665,1.228,0,0.944,0.57
		C139.796,61.967,136.115,69,127.714,69c-5.003,0-8.212-3.517-8.401-8.269C117.614,64.724,114.876,69,109.212,69
		c-17.18,0-8.779-32.029,10.195-32.029c4.531,0,6.23,2.091,6.702,4.657c1.511-2.091,4.059-3.612,6.608-3.612
		c4.342,0,6.419,2.662,7.08,4.752c0.095,0.38-0.472,0.855-0.85,0.38c-1.038-1.236-2.454-0.855-3.681,2.376
		c-0.661,1.806-4.342,12.355-5.569,16.728C128.752,65.674,129.979,66.719,131.584,66.719z M125.166,43.244
		c0-0.095,0-0.095,0.094-0.19c0-2.091-0.944-3.707-2.549-3.707c-2.454,0-6.324,1.996-10.384,13.306
		c-2.076,5.703-3.87,13.971,0.283,13.971c3.682,0,6.514-8.458,8.119-12.545C122.145,50.182,123.183,47.521,125.166,43.244z"/>
	<path fill="#70CED1" d="M166.037,51.322c0.283-0.665,1.227,0,0.943,0.57C162.167,61.967,158.485,69,150.084,69
		c-7.457,0-12.271-5.132-8.968-14.446c1.228-3.517,3.871-10.074,5.947-15.302h-3.965c-1.038,0-0.755-1.141,0.473-1.141h4.059
		l1.416-3.611c1.321-3.327-0.85-4.372-3.964-2.566c-0.85,0.475-1.039-0.19-0.566-0.665c1.132-1.141,3.491-1.997,6.041-1.997
		c6.513,0,8.117,4.562,7.268,8.839h4.154c1.133,0,0.85,1.141-0.473,1.141h-3.965c0,0.19-0.094,0.38-0.094,0.476
		c-1.605,4.562-6.985,19.008-7.93,22.905c-0.85,3.421,1.322,4.657,2.927,4.657C158.202,67.384,162.828,58.355,166.037,51.322z"/>
	<path fill="#70CED1" d="M175.569,0.19h0.377c6.607,0.38,6.419,9.599,2.832,14.921c-2.549,3.707-6.891,4.467-8.4,4.467
		c-0.944,0-1.133-0.76,0-0.855c0.85-0.095,4.436-0.475,7.079-3.707c1.699-1.996,2.454-4.752,2.549-6.938
		c-0.85,1.52-2.549,2.471-4.437,2.471c-2.833,0-5.098-2.281-5.098-5.132S172.736,0.19,175.569,0.19z"/>
	<path fill="#70CED1" d="M182.46,69c-12.838,0-12.932-13.211-6.514-14.731c1.605-3.231,4.626-9.029,6.041-12.735
		c0.85-5.512,3.871-7.223,6.798-7.223c0.85,0,1.133,0.57,0.566,0.95c-1.889,1.046,0.377,2.566,5.002,9.885
		C200.961,55.6,197.28,69,182.46,69z M177.457,54.079c2.644,0.095,4.72,2.281,4.72,4.942c0,2.756-2.171,4.942-4.908,4.942
		c-1.982,0-3.683-1.141-4.438-2.756c0.378,3.042,2.738,6.273,7.27,6.273c5.002,0,8.118-3.517,8.118-9.219
		c0-5.987-5.287-11.31-5.759-14.446C180.95,46.57,179.156,50.752,177.457,54.079z"/>
	<path fill="#70CED1" d="M224.273,43.339c1.134-3.421-0.85-4.372-3.965-2.566c-0.85,0.475-1.038-0.19-0.566-0.665
		c1.133-1.141,3.493-1.997,6.042-1.997c7.363,0,8.685,6.749,6.797,12.546c-1.511,4.467-3.021,7.888-4.06,11.595
		c-0.944,3.421,0.283,4.467,1.888,4.467c4.06,0,8.873-8.364,12.083-15.397c0.283-0.665,1.228,0,0.944,0.57
		C238.622,61.967,234.94,69,226.539,69c-6.985,0-10.1-6.273-7.363-13.4C220.97,50.847,223.047,47.046,224.273,43.339z
		 M228.332,28.893c0-2.661,2.172-4.847,4.815-4.847c2.736,0,4.908,2.186,4.908,4.847c0,2.756-2.172,4.942-4.908,4.942
		C230.504,33.835,228.332,31.649,228.332,28.893z"/>
	<path fill="#70CED1" d="M263.067,41.818c0-1.331-0.66-2.471-1.981-2.471c-2.076,0-4.909,3.707-7.08,8.649
		c-1.698,4.562-4.247,11.405-5.569,15.586c-1.133,3.422,0.85,4.372,3.966,2.566c0.849-0.475,1.037,0.19,0.565,0.665
		c-1.132,1.141-3.492,1.996-6.041,1.996c-7.363,0-8.779-7.508-6.702-13.21c1.699-4.848,3.115-8.554,5.097-13.496
		c1.322-3.326-0.85-3.992-3.964-2.376c-0.85,0.475-0.944-0.285-0.472-0.761c1.133-0.95,4.341-2.09,6.891-2.09
		c5.285,0,7.551,3.136,7.174,7.223c1.982-3.326,4.626-7.128,10.006-7.128c5.758,0,7.457,4.562,7.457,7.698
		c0,4.467-4.342,13.876-5.38,17.583c-0.944,3.421,0.283,4.467,1.888,4.467c4.059,0,8.873-8.364,12.082-15.397
		c0.283-0.665,1.228,0,0.944,0.57C277.134,61.967,272.791,69,265.617,69c-7.269,0-10.29-5.988-7.835-13.211
		C259.104,51.702,263.067,45.62,263.067,41.818z"/>
</g>
</svg>
